<svg width="0" height="0" display="none" xmlns="http://www.w3.org/2000/svg">

  <symbol viewBox="0 0 0 0" id="sprite">
    <symbol viewBox="0 0 21 21" id="fb">
      <path d="M10.8047 0.320312C5.28266 0.320312 0.805664 4.79731 0.805664 10.3193C0.805664 15.3093 4.46166 19.4453 9.24266 20.1983V13.2103H6.70266V10.3193H9.24266V8.11631C9.24266 5.60831 10.7357 4.22531 13.0187 4.22531C14.1127 4.22531 15.2587 4.42031 15.2587 4.42031V6.87931H13.9947C12.7547 6.87931 12.3667 7.65131 12.3667 8.44231V10.3173H15.1377L14.6947 13.2083H12.3667V20.1963C17.1477 19.4473 20.8037 15.3103 20.8037 10.3193C20.8037 4.79731 16.3267 0.320312 10.8047 0.320312Z"></path>
    </symbol>
    <symbol viewBox="0 0 24 25" id="inst">
      <path d="M11.8054 6.56142C8.48024 6.56142 5.79665 9.24501 5.79665 12.5702C5.79665 15.8954 8.48024 18.579 11.8054 18.579C15.1306 18.579 17.8142 15.8954 17.8142 12.5702C17.8142 9.24501 15.1306 6.56142 11.8054 6.56142ZM11.8054 16.4755C9.65504 16.4755 7.90016 14.7206 7.90016 12.5702C7.90016 10.4198 9.65504 8.66494 11.8054 8.66494C13.9558 8.66494 15.7107 10.4198 15.7107 12.5702C15.7107 14.7206 13.9558 16.4755 11.8054 16.4755ZM18.0603 4.91493C17.284 4.91493 16.657 5.54189 16.657 6.31825C16.657 7.09462 17.284 7.72158 18.0603 7.72158C18.8367 7.72158 19.4636 7.09755 19.4636 6.31825C19.4639 6.1339 19.4277 5.95132 19.3573 5.78095C19.2868 5.61059 19.1835 5.4558 19.0531 5.32544C18.9228 5.19508 18.768 5.09173 18.5976 5.02128C18.4273 4.95084 18.2447 4.9147 18.0603 4.91493V4.91493ZM23.5183 12.5702C23.5183 10.953 23.533 9.35048 23.4422 7.73622C23.3513 5.86122 22.9236 4.19716 21.5525 2.82607C20.1785 1.45204 18.5173 1.02724 16.6423 0.936418C15.0252 0.845598 13.4226 0.860246 11.8084 0.860246C10.1912 0.860246 8.58864 0.845598 6.97438 0.936418C5.09938 1.02724 3.43532 1.45497 2.06423 2.82607C0.690202 4.20009 0.265398 5.86122 0.174577 7.73622C0.0837571 9.35341 0.0984056 10.956 0.0984056 12.5702C0.0984056 14.1845 0.0837571 15.7899 0.174577 17.4042C0.265398 19.2792 0.693132 20.9433 2.06423 22.3143C3.43825 23.6884 5.09938 24.1132 6.97438 24.204C8.59157 24.2948 10.1941 24.2802 11.8084 24.2802C13.4256 24.2802 15.0281 24.2948 16.6423 24.204C18.5173 24.1132 20.1814 23.6854 21.5525 22.3143C22.9265 20.9403 23.3513 19.2792 23.4422 17.4042C23.5359 15.7899 23.5183 14.1874 23.5183 12.5702V12.5702ZM20.9402 19.4784C20.7263 20.0116 20.4685 20.4101 20.0554 20.8202C19.6423 21.2333 19.2468 21.4911 18.7136 21.705C17.1726 22.3173 13.5134 22.1796 11.8054 22.1796C10.0974 22.1796 6.43532 22.3173 4.8943 21.7079C4.3611 21.494 3.96266 21.2362 3.55251 20.8231C3.13942 20.4101 2.88161 20.0145 2.66774 19.4813C2.05837 17.9374 2.19606 14.2782 2.19606 12.5702C2.19606 10.8622 2.05837 7.20009 2.66774 5.65908C2.88161 5.12587 3.13942 4.72743 3.55251 4.31728C3.96559 3.90712 4.3611 3.64638 4.8943 3.43251C6.43532 2.82314 10.0974 2.96083 11.8054 2.96083C13.5134 2.96083 17.1756 2.82314 18.7166 3.43251C19.2498 3.64638 19.6482 3.90419 20.0584 4.31728C20.4715 4.73036 20.7293 5.12587 20.9431 5.65908C21.5525 7.20009 21.4148 10.8622 21.4148 12.5702C21.4148 14.2782 21.5525 17.9374 20.9402 19.4784Z"></path>
    </symbol>
    <symbol viewBox="0 0 25 15" id="vk">
      <path d="M24.2554 1.26839C24.4231 0.721422 24.2554 0.320312 23.4625 0.320312H20.836C20.1676 0.320312 19.8622 0.667314 19.6946 1.04843C19.6946 1.04843 18.3591 4.24671 16.4668 6.32048C15.8559 6.92391 15.5769 7.11446 15.2439 7.11446C15.0774 7.11446 14.8355 6.92391 14.8355 6.37694V1.26839C14.8355 0.612028 14.6427 0.320312 14.0857 0.320312H9.95847C9.54167 0.320312 9.29015 0.623791 9.29015 0.913154C9.29015 1.53423 10.2363 1.67773 10.3333 3.42803V7.22503C10.3333 8.05666 10.1812 8.2084 9.84589 8.2084C8.956 8.2084 6.79056 4.99835 5.50543 1.32367C5.25511 0.609676 5.0024 0.321489 4.33169 0.321489H1.70633C0.955376 0.321489 0.805664 0.66849 0.805664 1.0496C0.805664 1.73419 1.69555 5.12186 4.9509 9.60228C7.12112 12.6618 10.1765 14.3203 12.9599 14.3203C14.6283 14.3203 14.8343 13.9521 14.8343 13.317V11.0044C14.8343 10.2681 14.9936 10.1198 15.5218 10.1198C15.9098 10.1198 16.5781 10.3128 18.1364 11.7866C19.9161 13.5346 20.2108 14.3191 21.2108 14.3191H23.8362C24.586 14.3191 24.9608 13.951 24.7452 13.224C24.5093 12.5006 23.6589 11.4479 22.5307 10.2022C21.9175 9.49171 21.0012 8.72714 20.7222 8.34485C20.3329 7.85199 20.4455 7.63438 20.7222 7.1968C20.7234 7.19798 23.9224 2.77284 24.2554 1.26839Z"></path>
    </symbol>
    <symbol id="heart" viewBox="0 0 24 24">
      <path d="M0 0h24v24H0V0z" fill="none"></path>
      <path d="M16.5 3c-1.74 0-3.41.81-4.5 2.09C10.91 3.81 9.24 3 7.5 3 4.42 3 2 5.42 2 8.5c0 3.78 3.4 6.86 8.55 11.54L12 21.35l1.45-1.32C18.6 15.36 22 12.28 22 8.5 22 5.42 19.58 3 16.5 3zm-4.4 15.55l-.1.1-.1-.1C7.14 14.24 4 11.39 4 8.5 4 6.5 5.5 5 7.5 5c1.54 0 3.04.99 3.57 2.36h1.87C13.46 5.99 14.96 5 16.5 5c2 0 3.5 1.5 3.5 3.5 0 2.89-3.14 5.74-7.9 10.05z"></path>
    </symbol>
    <symbol id="square" viewBox="0 0 70 70">
      <g filter="url(#filter0_d_2831_1160)">
        <circle cx="6.5" cy="2.5" r="2.5" fill="white"></circle>
      </g>
      <g filter="url(#filter1_d_2831_1160)">
        <circle cx="6.5" cy="39.9629" r="2.5" fill="white"></circle>
      </g>
      <g filter="url(#filter2_d_2831_1160)">
        <circle cx="6.5" cy="21.2305" r="2.5" fill="white"></circle>
      </g>
      <g filter="url(#filter3_d_2831_1160)">
        <circle cx="6.5" cy="58.6934" r="2.5" fill="white"></circle>
      </g>
      <g filter="url(#filter4_d_2831_1160)">
        <circle cx="25.2312" cy="2.5" r="2.5" fill="white"></circle>
      </g>
      <g filter="url(#filter5_d_2831_1160)">
        <circle cx="25.2312" cy="39.9629" r="2.5" fill="white"></circle>
      </g>
      <g filter="url(#filter6_d_2831_1160)">
        <circle cx="25.2312" cy="21.2305" r="2.5" fill="white"></circle>
      </g>
      <g filter="url(#filter7_d_2831_1160)">
        <circle cx="25.2312" cy="58.6934" r="2.5" fill="white"></circle>
      </g>
      <g filter="url(#filter8_d_2831_1160)">
        <circle cx="43.9624" cy="2.5" r="2.5" fill="white"></circle>
      </g>
      <g filter="url(#filter9_d_2831_1160)">
        <circle cx="43.9624" cy="39.9629" r="2.5" fill="white"></circle>
      </g>
      <g filter="url(#filter10_d_2831_1160)">
        <circle cx="43.9624" cy="21.2305" r="2.5" fill="white"></circle>
      </g>
      <g filter="url(#filter11_d_2831_1160)">
        <circle cx="43.9624" cy="58.6934" r="2.5" fill="white"></circle>
      </g>
      <g filter="url(#filter12_d_2831_1160)">
        <circle cx="62.6936" cy="2.5" r="2.5" fill="white"></circle>
      </g>
      <g filter="url(#filter13_d_2831_1160)">
        <circle cx="62.6936" cy="39.9629" r="2.5" fill="white"></circle>
      </g>
      <g filter="url(#filter14_d_2831_1160)">
        <circle cx="62.6936" cy="21.2305" r="2.5" fill="white"></circle>
      </g>
      <g filter="url(#filter15_d_2831_1160)">
        <circle cx="62.6936" cy="58.6934" r="2.5" fill="white"></circle>
      </g>
      <defs>
        <filter id="filter0_d_2831_1160" x="0" y="0" width="13" height="13" filterUnits="userSpaceOnUse" color-interpolation-filters="sRGB">
          <feFlood flood-opacity="0" result="BackgroundImageFix"></feFlood>
          <feColorMatrix in="SourceAlpha" type="matrix" values="0 0 0 0 0 0 0 0 0 0 0 0 0 0 0 0 0 0 127 0" result="hardAlpha"></feColorMatrix>
          <feOffset dy="4"></feOffset>
          <feGaussianBlur stdDeviation="2"></feGaussianBlur>
          <feColorMatrix type="matrix" values="0 0 0 0 1 0 0 0 0 0.482353 0 0 0 0 0.345098 0 0 0 0.13 0"></feColorMatrix>
          <feBlend mode="normal" in2="BackgroundImageFix" result="effect1_dropShadow_2831_1160"></feBlend>
          <feBlend mode="normal" in="SourceGraphic" in2="effect1_dropShadow_2831_1160" result="shape"></feBlend>
        </filter>
        <filter id="filter1_d_2831_1160" x="0" y="37.4629" width="13" height="13" filterUnits="userSpaceOnUse" color-interpolation-filters="sRGB">
          <feFlood flood-opacity="0" result="BackgroundImageFix"></feFlood>
          <feColorMatrix in="SourceAlpha" type="matrix" values="0 0 0 0 0 0 0 0 0 0 0 0 0 0 0 0 0 0 127 0" result="hardAlpha"></feColorMatrix>
          <feOffset dy="4"></feOffset>
          <feGaussianBlur stdDeviation="2"></feGaussianBlur>
          <feColorMatrix type="matrix" values="0 0 0 0 1 0 0 0 0 0.482353 0 0 0 0 0.345098 0 0 0 0.13 0"></feColorMatrix>
          <feBlend mode="normal" in2="BackgroundImageFix" result="effect1_dropShadow_2831_1160"></feBlend>
          <feBlend mode="normal" in="SourceGraphic" in2="effect1_dropShadow_2831_1160" result="shape"></feBlend>
        </filter>
        <filter id="filter2_d_2831_1160" x="0" y="18.7305" width="13" height="13" filterUnits="userSpaceOnUse" color-interpolation-filters="sRGB">
          <feFlood flood-opacity="0" result="BackgroundImageFix"></feFlood>
          <feColorMatrix in="SourceAlpha" type="matrix" values="0 0 0 0 0 0 0 0 0 0 0 0 0 0 0 0 0 0 127 0" result="hardAlpha"></feColorMatrix>
          <feOffset dy="4"></feOffset>
          <feGaussianBlur stdDeviation="2"></feGaussianBlur>
          <feColorMatrix type="matrix" values="0 0 0 0 1 0 0 0 0 0.482353 0 0 0 0 0.345098 0 0 0 0.13 0"></feColorMatrix>
          <feBlend mode="normal" in2="BackgroundImageFix" result="effect1_dropShadow_2831_1160"></feBlend>
          <feBlend mode="normal" in="SourceGraphic" in2="effect1_dropShadow_2831_1160" result="shape"></feBlend>
        </filter>
        <filter id="filter3_d_2831_1160" x="0" y="56.1934" width="13" height="13" filterUnits="userSpaceOnUse" color-interpolation-filters="sRGB">
          <feFlood flood-opacity="0" result="BackgroundImageFix"></feFlood>
          <feColorMatrix in="SourceAlpha" type="matrix" values="0 0 0 0 0 0 0 0 0 0 0 0 0 0 0 0 0 0 127 0" result="hardAlpha"></feColorMatrix>
          <feOffset dy="4"></feOffset>
          <feGaussianBlur stdDeviation="2"></feGaussianBlur>
          <feColorMatrix type="matrix" values="0 0 0 0 1 0 0 0 0 0.482353 0 0 0 0 0.345098 0 0 0 0.13 0"></feColorMatrix>
          <feBlend mode="normal" in2="BackgroundImageFix" result="effect1_dropShadow_2831_1160"></feBlend>
          <feBlend mode="normal" in="SourceGraphic" in2="effect1_dropShadow_2831_1160" result="shape"></feBlend>
        </filter>
        <filter id="filter4_d_2831_1160" x="18.7312" y="0" width="13" height="13" filterUnits="userSpaceOnUse" color-interpolation-filters="sRGB">
          <feFlood flood-opacity="0" result="BackgroundImageFix"></feFlood>
          <feColorMatrix in="SourceAlpha" type="matrix" values="0 0 0 0 0 0 0 0 0 0 0 0 0 0 0 0 0 0 127 0" result="hardAlpha"></feColorMatrix>
          <feOffset dy="4"></feOffset>
          <feGaussianBlur stdDeviation="2"></feGaussianBlur>
          <feColorMatrix type="matrix" values="0 0 0 0 1 0 0 0 0 0.482353 0 0 0 0 0.345098 0 0 0 0.13 0"></feColorMatrix>
          <feBlend mode="normal" in2="BackgroundImageFix" result="effect1_dropShadow_2831_1160"></feBlend>
          <feBlend mode="normal" in="SourceGraphic" in2="effect1_dropShadow_2831_1160" result="shape"></feBlend>
        </filter>
        <filter id="filter5_d_2831_1160" x="18.7312" y="37.4629" width="13" height="13" filterUnits="userSpaceOnUse" color-interpolation-filters="sRGB">
          <feFlood flood-opacity="0" result="BackgroundImageFix"></feFlood>
          <feColorMatrix in="SourceAlpha" type="matrix" values="0 0 0 0 0 0 0 0 0 0 0 0 0 0 0 0 0 0 127 0" result="hardAlpha"></feColorMatrix>
          <feOffset dy="4"></feOffset>
          <feGaussianBlur stdDeviation="2"></feGaussianBlur>
          <feColorMatrix type="matrix" values="0 0 0 0 1 0 0 0 0 0.482353 0 0 0 0 0.345098 0 0 0 0.13 0"></feColorMatrix>
          <feBlend mode="normal" in2="BackgroundImageFix" result="effect1_dropShadow_2831_1160"></feBlend>
          <feBlend mode="normal" in="SourceGraphic" in2="effect1_dropShadow_2831_1160" result="shape"></feBlend>
        </filter>
        <filter id="filter6_d_2831_1160" x="18.7312" y="18.7305" width="13" height="13" filterUnits="userSpaceOnUse" color-interpolation-filters="sRGB">
          <feFlood flood-opacity="0" result="BackgroundImageFix"></feFlood>
          <feColorMatrix in="SourceAlpha" type="matrix" values="0 0 0 0 0 0 0 0 0 0 0 0 0 0 0 0 0 0 127 0" result="hardAlpha"></feColorMatrix>
          <feOffset dy="4"></feOffset>
          <feGaussianBlur stdDeviation="2"></feGaussianBlur>
          <feColorMatrix type="matrix" values="0 0 0 0 1 0 0 0 0 0.482353 0 0 0 0 0.345098 0 0 0 0.13 0"></feColorMatrix>
          <feBlend mode="normal" in2="BackgroundImageFix" result="effect1_dropShadow_2831_1160"></feBlend>
          <feBlend mode="normal" in="SourceGraphic" in2="effect1_dropShadow_2831_1160" result="shape"></feBlend>
        </filter>
        <filter id="filter7_d_2831_1160" x="18.7312" y="56.1934" width="13" height="13" filterUnits="userSpaceOnUse" color-interpolation-filters="sRGB">
          <feFlood flood-opacity="0" result="BackgroundImageFix"></feFlood>
          <feColorMatrix in="SourceAlpha" type="matrix" values="0 0 0 0 0 0 0 0 0 0 0 0 0 0 0 0 0 0 127 0" result="hardAlpha"></feColorMatrix>
          <feOffset dy="4"></feOffset>
          <feGaussianBlur stdDeviation="2"></feGaussianBlur>
          <feColorMatrix type="matrix" values="0 0 0 0 1 0 0 0 0 0.482353 0 0 0 0 0.345098 0 0 0 0.13 0"></feColorMatrix>
          <feBlend mode="normal" in2="BackgroundImageFix" result="effect1_dropShadow_2831_1160"></feBlend>
          <feBlend mode="normal" in="SourceGraphic" in2="effect1_dropShadow_2831_1160" result="shape"></feBlend>
        </filter>
        <filter id="filter8_d_2831_1160" x="37.4624" y="0" width="13" height="13" filterUnits="userSpaceOnUse" color-interpolation-filters="sRGB">
          <feFlood flood-opacity="0" result="BackgroundImageFix"></feFlood>
          <feColorMatrix in="SourceAlpha" type="matrix" values="0 0 0 0 0 0 0 0 0 0 0 0 0 0 0 0 0 0 127 0" result="hardAlpha"></feColorMatrix>
          <feOffset dy="4"></feOffset>
          <feGaussianBlur stdDeviation="2"></feGaussianBlur>
          <feColorMatrix type="matrix" values="0 0 0 0 1 0 0 0 0 0.482353 0 0 0 0 0.345098 0 0 0 0.13 0"></feColorMatrix>
          <feBlend mode="normal" in2="BackgroundImageFix" result="effect1_dropShadow_2831_1160"></feBlend>
          <feBlend mode="normal" in="SourceGraphic" in2="effect1_dropShadow_2831_1160" result="shape"></feBlend>
        </filter>
        <filter id="filter9_d_2831_1160" x="37.4624" y="37.4629" width="13" height="13" filterUnits="userSpaceOnUse" color-interpolation-filters="sRGB">
          <feFlood flood-opacity="0" result="BackgroundImageFix"></feFlood>
          <feColorMatrix in="SourceAlpha" type="matrix" values="0 0 0 0 0 0 0 0 0 0 0 0 0 0 0 0 0 0 127 0" result="hardAlpha"></feColorMatrix>
          <feOffset dy="4"></feOffset>
          <feGaussianBlur stdDeviation="2"></feGaussianBlur>
          <feColorMatrix type="matrix" values="0 0 0 0 1 0 0 0 0 0.482353 0 0 0 0 0.345098 0 0 0 0.13 0"></feColorMatrix>
          <feBlend mode="normal" in2="BackgroundImageFix" result="effect1_dropShadow_2831_1160"></feBlend>
          <feBlend mode="normal" in="SourceGraphic" in2="effect1_dropShadow_2831_1160" result="shape"></feBlend>
        </filter>
        <filter id="filter10_d_2831_1160" x="37.4624" y="18.7305" width="13" height="13" filterUnits="userSpaceOnUse" color-interpolation-filters="sRGB">
          <feFlood flood-opacity="0" result="BackgroundImageFix"></feFlood>
          <feColorMatrix in="SourceAlpha" type="matrix" values="0 0 0 0 0 0 0 0 0 0 0 0 0 0 0 0 0 0 127 0" result="hardAlpha"></feColorMatrix>
          <feOffset dy="4"></feOffset>
          <feGaussianBlur stdDeviation="2"></feGaussianBlur>
          <feColorMatrix type="matrix" values="0 0 0 0 1 0 0 0 0 0.482353 0 0 0 0 0.345098 0 0 0 0.13 0"></feColorMatrix>
          <feBlend mode="normal" in2="BackgroundImageFix" result="effect1_dropShadow_2831_1160"></feBlend>
          <feBlend mode="normal" in="SourceGraphic" in2="effect1_dropShadow_2831_1160" result="shape"></feBlend>
        </filter>
        <filter id="filter11_d_2831_1160" x="37.4624" y="56.1934" width="13" height="13" filterUnits="userSpaceOnUse" color-interpolation-filters="sRGB">
          <feFlood flood-opacity="0" result="BackgroundImageFix"></feFlood>
          <feColorMatrix in="SourceAlpha" type="matrix" values="0 0 0 0 0 0 0 0 0 0 0 0 0 0 0 0 0 0 127 0" result="hardAlpha"></feColorMatrix>
          <feOffset dy="4"></feOffset>
          <feGaussianBlur stdDeviation="2"></feGaussianBlur>
          <feColorMatrix type="matrix" values="0 0 0 0 1 0 0 0 0 0.482353 0 0 0 0 0.345098 0 0 0 0.13 0"></feColorMatrix>
          <feBlend mode="normal" in2="BackgroundImageFix" result="effect1_dropShadow_2831_1160"></feBlend>
          <feBlend mode="normal" in="SourceGraphic" in2="effect1_dropShadow_2831_1160" result="shape"></feBlend>
        </filter>
        <filter id="filter12_d_2831_1160" x="56.1936" y="0" width="13" height="13" filterUnits="userSpaceOnUse" color-interpolation-filters="sRGB">
          <feFlood flood-opacity="0" result="BackgroundImageFix"></feFlood>
          <feColorMatrix in="SourceAlpha" type="matrix" values="0 0 0 0 0 0 0 0 0 0 0 0 0 0 0 0 0 0 127 0" result="hardAlpha"></feColorMatrix>
          <feOffset dy="4"></feOffset>
          <feGaussianBlur stdDeviation="2"></feGaussianBlur>
          <feColorMatrix type="matrix" values="0 0 0 0 1 0 0 0 0 0.482353 0 0 0 0 0.345098 0 0 0 0.13 0"></feColorMatrix>
          <feBlend mode="normal" in2="BackgroundImageFix" result="effect1_dropShadow_2831_1160"></feBlend>
          <feBlend mode="normal" in="SourceGraphic" in2="effect1_dropShadow_2831_1160" result="shape"></feBlend>
        </filter>
        <filter id="filter13_d_2831_1160" x="56.1936" y="37.4629" width="13" height="13" filterUnits="userSpaceOnUse" color-interpolation-filters="sRGB">
          <feFlood flood-opacity="0" result="BackgroundImageFix"></feFlood>
          <feColorMatrix in="SourceAlpha" type="matrix" values="0 0 0 0 0 0 0 0 0 0 0 0 0 0 0 0 0 0 127 0" result="hardAlpha"></feColorMatrix>
          <feOffset dy="4"></feOffset>
          <feGaussianBlur stdDeviation="2"></feGaussianBlur>
          <feColorMatrix type="matrix" values="0 0 0 0 1 0 0 0 0 0.482353 0 0 0 0 0.345098 0 0 0 0.13 0"></feColorMatrix>
          <feBlend mode="normal" in2="BackgroundImageFix" result="effect1_dropShadow_2831_1160"></feBlend>
          <feBlend mode="normal" in="SourceGraphic" in2="effect1_dropShadow_2831_1160" result="shape"></feBlend>
        </filter>
        <filter id="filter14_d_2831_1160" x="56.1936" y="18.7305" width="13" height="13" filterUnits="userSpaceOnUse" color-interpolation-filters="sRGB">
          <feFlood flood-opacity="0" result="BackgroundImageFix"></feFlood>
          <feColorMatrix in="SourceAlpha" type="matrix" values="0 0 0 0 0 0 0 0 0 0 0 0 0 0 0 0 0 0 127 0" result="hardAlpha"></feColorMatrix>
          <feOffset dy="4"></feOffset>
          <feGaussianBlur stdDeviation="2"></feGaussianBlur>
          <feColorMatrix type="matrix" values="0 0 0 0 1 0 0 0 0 0.482353 0 0 0 0 0.345098 0 0 0 0.13 0"></feColorMatrix>
          <feBlend mode="normal" in2="BackgroundImageFix" result="effect1_dropShadow_2831_1160"></feBlend>
          <feBlend mode="normal" in="SourceGraphic" in2="effect1_dropShadow_2831_1160" result="shape"></feBlend>
        </filter>
        <filter id="filter15_d_2831_1160" x="56.1936" y="56.1934" width="13" height="13" filterUnits="userSpaceOnUse" color-interpolation-filters="sRGB">
          <feFlood flood-opacity="0" result="BackgroundImageFix"></feFlood>
          <feColorMatrix in="SourceAlpha" type="matrix" values="0 0 0 0 0 0 0 0 0 0 0 0 0 0 0 0 0 0 127 0" result="hardAlpha"></feColorMatrix>
          <feOffset dy="4"></feOffset>
          <feGaussianBlur stdDeviation="2"></feGaussianBlur>
          <feColorMatrix type="matrix" values="0 0 0 0 1 0 0 0 0 0.482353 0 0 0 0 0.345098 0 0 0 0.13 0"></feColorMatrix>
          <feBlend mode="normal" in2="BackgroundImageFix" result="effect1_dropShadow_2831_1160"></feBlend>
          <feBlend mode="normal" in="SourceGraphic" in2="effect1_dropShadow_2831_1160" result="shape"></feBlend>
        </filter>
      </defs>
    </symbol>
  </symbol>
  <symbol viewBox="0 0 70 70" id="square">
    <g filter="url(#filter0_d_2831_1177)">
      <circle cx="6.5" cy="2.5" r="2.5" fill="#FFD54F"></circle>
    </g>
    <g filter="url(#filter1_d_2831_1177)">
      <circle cx="6.5" cy="39.9629" r="2.5" fill="#FFD54F"></circle>
    </g>
    <g filter="url(#filter2_d_2831_1177)">
      <circle cx="6.5" cy="21.2305" r="2.5" fill="#FFD54F"></circle>
    </g>
    <g filter="url(#filter3_d_2831_1177)">
      <circle cx="6.5" cy="58.6934" r="2.5" fill="#FFD54F"></circle>
    </g>
    <g filter="url(#filter4_d_2831_1177)">
      <circle cx="25.2312" cy="2.5" r="2.5" fill="#FFD54F"></circle>
    </g>
    <g filter="url(#filter5_d_2831_1177)">
      <circle cx="25.2312" cy="39.9629" r="2.5" fill="#FFD54F"></circle>
    </g>
    <g filter="url(#filter6_d_2831_1177)">
      <circle cx="25.2312" cy="21.2305" r="2.5" fill="#FFD54F"></circle>
    </g>
    <g filter="url(#filter7_d_2831_1177)">
      <circle cx="25.2312" cy="58.6934" r="2.5" fill="#FFD54F"></circle>
    </g>
    <g filter="url(#filter8_d_2831_1177)">
      <circle cx="43.9624" cy="2.5" r="2.5" fill="#FFD54F"></circle>
    </g>
    <g filter="url(#filter9_d_2831_1177)">
      <circle cx="43.9624" cy="39.9629" r="2.5" fill="#FFD54F"></circle>
    </g>
    <g filter="url(#filter10_d_2831_1177)">
      <circle cx="43.9624" cy="21.2305" r="2.5" fill="#FFD54F"></circle>
    </g>
    <g filter="url(#filter11_d_2831_1177)">
      <circle cx="43.9624" cy="58.6934" r="2.5" fill="#FFD54F"></circle>
    </g>
    <g filter="url(#filter12_d_2831_1177)">
      <circle cx="62.6936" cy="2.5" r="2.5" fill="#FFD54F"></circle>
    </g>
    <g filter="url(#filter13_d_2831_1177)">
      <circle cx="62.6936" cy="39.9629" r="2.5" fill="#FFD54F"></circle>
    </g>
    <g filter="url(#filter14_d_2831_1177)">
      <circle cx="62.6936" cy="21.2305" r="2.5" fill="#FFD54F"></circle>
    </g>
    <g filter="url(#filter15_d_2831_1177)">
      <circle cx="62.6936" cy="58.6934" r="2.5" fill="#FFD54F"></circle>
    </g>
    <defs>
      <filter id="filter0_d_2831_1177" x="0" y="0" width="13" height="13" filterUnits="userSpaceOnUse" color-interpolation-filters="sRGB">
        <feFlood flood-opacity="0" result="BackgroundImageFix"></feFlood>
        <feColorMatrix in="SourceAlpha" type="matrix" values="0 0 0 0 0 0 0 0 0 0 0 0 0 0 0 0 0 0 127 0" result="hardAlpha"></feColorMatrix>
        <feOffset dy="4"></feOffset>
        <feGaussianBlur stdDeviation="2"></feGaussianBlur>
        <feColorMatrix type="matrix" values="0 0 0 0 1 0 0 0 0 0.482353 0 0 0 0 0.345098 0 0 0 0.13 0"></feColorMatrix>
        <feBlend mode="normal" in2="BackgroundImageFix" result="effect1_dropShadow_2831_1177"></feBlend>
        <feBlend mode="normal" in="SourceGraphic" in2="effect1_dropShadow_2831_1177" result="shape"></feBlend>
      </filter>
      <filter id="filter1_d_2831_1177" x="0" y="37.4629" width="13" height="13" filterUnits="userSpaceOnUse" color-interpolation-filters="sRGB">
        <feFlood flood-opacity="0" result="BackgroundImageFix"></feFlood>
        <feColorMatrix in="SourceAlpha" type="matrix" values="0 0 0 0 0 0 0 0 0 0 0 0 0 0 0 0 0 0 127 0" result="hardAlpha"></feColorMatrix>
        <feOffset dy="4"></feOffset>
        <feGaussianBlur stdDeviation="2"></feGaussianBlur>
        <feColorMatrix type="matrix" values="0 0 0 0 1 0 0 0 0 0.482353 0 0 0 0 0.345098 0 0 0 0.13 0"></feColorMatrix>
        <feBlend mode="normal" in2="BackgroundImageFix" result="effect1_dropShadow_2831_1177"></feBlend>
        <feBlend mode="normal" in="SourceGraphic" in2="effect1_dropShadow_2831_1177" result="shape"></feBlend>
      </filter>
      <filter id="filter2_d_2831_1177" x="0" y="18.7305" width="13" height="13" filterUnits="userSpaceOnUse" color-interpolation-filters="sRGB">
        <feFlood flood-opacity="0" result="BackgroundImageFix"></feFlood>
        <feColorMatrix in="SourceAlpha" type="matrix" values="0 0 0 0 0 0 0 0 0 0 0 0 0 0 0 0 0 0 127 0" result="hardAlpha"></feColorMatrix>
        <feOffset dy="4"></feOffset>
        <feGaussianBlur stdDeviation="2"></feGaussianBlur>
        <feColorMatrix type="matrix" values="0 0 0 0 1 0 0 0 0 0.482353 0 0 0 0 0.345098 0 0 0 0.13 0"></feColorMatrix>
        <feBlend mode="normal" in2="BackgroundImageFix" result="effect1_dropShadow_2831_1177"></feBlend>
        <feBlend mode="normal" in="SourceGraphic" in2="effect1_dropShadow_2831_1177" result="shape"></feBlend>
      </filter>
      <filter id="filter3_d_2831_1177" x="0" y="56.1934" width="13" height="13" filterUnits="userSpaceOnUse" color-interpolation-filters="sRGB">
        <feFlood flood-opacity="0" result="BackgroundImageFix"></feFlood>
        <feColorMatrix in="SourceAlpha" type="matrix" values="0 0 0 0 0 0 0 0 0 0 0 0 0 0 0 0 0 0 127 0" result="hardAlpha"></feColorMatrix>
        <feOffset dy="4"></feOffset>
        <feGaussianBlur stdDeviation="2"></feGaussianBlur>
        <feColorMatrix type="matrix" values="0 0 0 0 1 0 0 0 0 0.482353 0 0 0 0 0.345098 0 0 0 0.13 0"></feColorMatrix>
        <feBlend mode="normal" in2="BackgroundImageFix" result="effect1_dropShadow_2831_1177"></feBlend>
        <feBlend mode="normal" in="SourceGraphic" in2="effect1_dropShadow_2831_1177" result="shape"></feBlend>
      </filter>
      <filter id="filter4_d_2831_1177" x="18.7312" y="0" width="13" height="13" filterUnits="userSpaceOnUse" color-interpolation-filters="sRGB">
        <feFlood flood-opacity="0" result="BackgroundImageFix"></feFlood>
        <feColorMatrix in="SourceAlpha" type="matrix" values="0 0 0 0 0 0 0 0 0 0 0 0 0 0 0 0 0 0 127 0" result="hardAlpha"></feColorMatrix>
        <feOffset dy="4"></feOffset>
        <feGaussianBlur stdDeviation="2"></feGaussianBlur>
        <feColorMatrix type="matrix" values="0 0 0 0 1 0 0 0 0 0.482353 0 0 0 0 0.345098 0 0 0 0.13 0"></feColorMatrix>
        <feBlend mode="normal" in2="BackgroundImageFix" result="effect1_dropShadow_2831_1177"></feBlend>
        <feBlend mode="normal" in="SourceGraphic" in2="effect1_dropShadow_2831_1177" result="shape"></feBlend>
      </filter>
      <filter id="filter5_d_2831_1177" x="18.7312" y="37.4629" width="13" height="13" filterUnits="userSpaceOnUse" color-interpolation-filters="sRGB">
        <feFlood flood-opacity="0" result="BackgroundImageFix"></feFlood>
        <feColorMatrix in="SourceAlpha" type="matrix" values="0 0 0 0 0 0 0 0 0 0 0 0 0 0 0 0 0 0 127 0" result="hardAlpha"></feColorMatrix>
        <feOffset dy="4"></feOffset>
        <feGaussianBlur stdDeviation="2"></feGaussianBlur>
        <feColorMatrix type="matrix" values="0 0 0 0 1 0 0 0 0 0.482353 0 0 0 0 0.345098 0 0 0 0.13 0"></feColorMatrix>
        <feBlend mode="normal" in2="BackgroundImageFix" result="effect1_dropShadow_2831_1177"></feBlend>
        <feBlend mode="normal" in="SourceGraphic" in2="effect1_dropShadow_2831_1177" result="shape"></feBlend>
      </filter>
      <filter id="filter6_d_2831_1177" x="18.7312" y="18.7305" width="13" height="13" filterUnits="userSpaceOnUse" color-interpolation-filters="sRGB">
        <feFlood flood-opacity="0" result="BackgroundImageFix"></feFlood>
        <feColorMatrix in="SourceAlpha" type="matrix" values="0 0 0 0 0 0 0 0 0 0 0 0 0 0 0 0 0 0 127 0" result="hardAlpha"></feColorMatrix>
        <feOffset dy="4"></feOffset>
        <feGaussianBlur stdDeviation="2"></feGaussianBlur>
        <feColorMatrix type="matrix" values="0 0 0 0 1 0 0 0 0 0.482353 0 0 0 0 0.345098 0 0 0 0.13 0"></feColorMatrix>
        <feBlend mode="normal" in2="BackgroundImageFix" result="effect1_dropShadow_2831_1177"></feBlend>
        <feBlend mode="normal" in="SourceGraphic" in2="effect1_dropShadow_2831_1177" result="shape"></feBlend>
      </filter>
      <filter id="filter7_d_2831_1177" x="18.7312" y="56.1934" width="13" height="13" filterUnits="userSpaceOnUse" color-interpolation-filters="sRGB">
        <feFlood flood-opacity="0" result="BackgroundImageFix"></feFlood>
        <feColorMatrix in="SourceAlpha" type="matrix" values="0 0 0 0 0 0 0 0 0 0 0 0 0 0 0 0 0 0 127 0" result="hardAlpha"></feColorMatrix>
        <feOffset dy="4"></feOffset>
        <feGaussianBlur stdDeviation="2"></feGaussianBlur>
        <feColorMatrix type="matrix" values="0 0 0 0 1 0 0 0 0 0.482353 0 0 0 0 0.345098 0 0 0 0.13 0"></feColorMatrix>
        <feBlend mode="normal" in2="BackgroundImageFix" result="effect1_dropShadow_2831_1177"></feBlend>
        <feBlend mode="normal" in="SourceGraphic" in2="effect1_dropShadow_2831_1177" result="shape"></feBlend>
      </filter>
      <filter id="filter8_d_2831_1177" x="37.4624" y="0" width="13" height="13" filterUnits="userSpaceOnUse" color-interpolation-filters="sRGB">
        <feFlood flood-opacity="0" result="BackgroundImageFix"></feFlood>
        <feColorMatrix in="SourceAlpha" type="matrix" values="0 0 0 0 0 0 0 0 0 0 0 0 0 0 0 0 0 0 127 0" result="hardAlpha"></feColorMatrix>
        <feOffset dy="4"></feOffset>
        <feGaussianBlur stdDeviation="2"></feGaussianBlur>
        <feColorMatrix type="matrix" values="0 0 0 0 1 0 0 0 0 0.482353 0 0 0 0 0.345098 0 0 0 0.13 0"></feColorMatrix>
        <feBlend mode="normal" in2="BackgroundImageFix" result="effect1_dropShadow_2831_1177"></feBlend>
        <feBlend mode="normal" in="SourceGraphic" in2="effect1_dropShadow_2831_1177" result="shape"></feBlend>
      </filter>
      <filter id="filter9_d_2831_1177" x="37.4624" y="37.4629" width="13" height="13" filterUnits="userSpaceOnUse" color-interpolation-filters="sRGB">
        <feFlood flood-opacity="0" result="BackgroundImageFix"></feFlood>
        <feColorMatrix in="SourceAlpha" type="matrix" values="0 0 0 0 0 0 0 0 0 0 0 0 0 0 0 0 0 0 127 0" result="hardAlpha"></feColorMatrix>
        <feOffset dy="4"></feOffset>
        <feGaussianBlur stdDeviation="2"></feGaussianBlur>
        <feColorMatrix type="matrix" values="0 0 0 0 1 0 0 0 0 0.482353 0 0 0 0 0.345098 0 0 0 0.13 0"></feColorMatrix>
        <feBlend mode="normal" in2="BackgroundImageFix" result="effect1_dropShadow_2831_1177"></feBlend>
        <feBlend mode="normal" in="SourceGraphic" in2="effect1_dropShadow_2831_1177" result="shape"></feBlend>
      </filter>
      <filter id="filter10_d_2831_1177" x="37.4624" y="18.7305" width="13" height="13" filterUnits="userSpaceOnUse" color-interpolation-filters="sRGB">
        <feFlood flood-opacity="0" result="BackgroundImageFix"></feFlood>
        <feColorMatrix in="SourceAlpha" type="matrix" values="0 0 0 0 0 0 0 0 0 0 0 0 0 0 0 0 0 0 127 0" result="hardAlpha"></feColorMatrix>
        <feOffset dy="4"></feOffset>
        <feGaussianBlur stdDeviation="2"></feGaussianBlur>
        <feColorMatrix type="matrix" values="0 0 0 0 1 0 0 0 0 0.482353 0 0 0 0 0.345098 0 0 0 0.13 0"></feColorMatrix>
        <feBlend mode="normal" in2="BackgroundImageFix" result="effect1_dropShadow_2831_1177"></feBlend>
        <feBlend mode="normal" in="SourceGraphic" in2="effect1_dropShadow_2831_1177" result="shape"></feBlend>
      </filter>
      <filter id="filter11_d_2831_1177" x="37.4624" y="56.1934" width="13" height="13" filterUnits="userSpaceOnUse" color-interpolation-filters="sRGB">
        <feFlood flood-opacity="0" result="BackgroundImageFix"></feFlood>
        <feColorMatrix in="SourceAlpha" type="matrix" values="0 0 0 0 0 0 0 0 0 0 0 0 0 0 0 0 0 0 127 0" result="hardAlpha"></feColorMatrix>
        <feOffset dy="4"></feOffset>
        <feGaussianBlur stdDeviation="2"></feGaussianBlur>
        <feColorMatrix type="matrix" values="0 0 0 0 1 0 0 0 0 0.482353 0 0 0 0 0.345098 0 0 0 0.13 0"></feColorMatrix>
        <feBlend mode="normal" in2="BackgroundImageFix" result="effect1_dropShadow_2831_1177"></feBlend>
        <feBlend mode="normal" in="SourceGraphic" in2="effect1_dropShadow_2831_1177" result="shape"></feBlend>
      </filter>
      <filter id="filter12_d_2831_1177" x="56.1936" y="0" width="13" height="13" filterUnits="userSpaceOnUse" color-interpolation-filters="sRGB">
        <feFlood flood-opacity="0" result="BackgroundImageFix"></feFlood>
        <feColorMatrix in="SourceAlpha" type="matrix" values="0 0 0 0 0 0 0 0 0 0 0 0 0 0 0 0 0 0 127 0" result="hardAlpha"></feColorMatrix>
        <feOffset dy="4"></feOffset>
        <feGaussianBlur stdDeviation="2"></feGaussianBlur>
        <feColorMatrix type="matrix" values="0 0 0 0 1 0 0 0 0 0.482353 0 0 0 0 0.345098 0 0 0 0.13 0"></feColorMatrix>
        <feBlend mode="normal" in2="BackgroundImageFix" result="effect1_dropShadow_2831_1177"></feBlend>
        <feBlend mode="normal" in="SourceGraphic" in2="effect1_dropShadow_2831_1177" result="shape"></feBlend>
      </filter>
      <filter id="filter13_d_2831_1177" x="56.1936" y="37.4629" width="13" height="13" filterUnits="userSpaceOnUse" color-interpolation-filters="sRGB">
        <feFlood flood-opacity="0" result="BackgroundImageFix"></feFlood>
        <feColorMatrix in="SourceAlpha" type="matrix" values="0 0 0 0 0 0 0 0 0 0 0 0 0 0 0 0 0 0 127 0" result="hardAlpha"></feColorMatrix>
        <feOffset dy="4"></feOffset>
        <feGaussianBlur stdDeviation="2"></feGaussianBlur>
        <feColorMatrix type="matrix" values="0 0 0 0 1 0 0 0 0 0.482353 0 0 0 0 0.345098 0 0 0 0.13 0"></feColorMatrix>
        <feBlend mode="normal" in2="BackgroundImageFix" result="effect1_dropShadow_2831_1177"></feBlend>
        <feBlend mode="normal" in="SourceGraphic" in2="effect1_dropShadow_2831_1177" result="shape"></feBlend>
      </filter>
      <filter id="filter14_d_2831_1177" x="56.1936" y="18.7305" width="13" height="13" filterUnits="userSpaceOnUse" color-interpolation-filters="sRGB">
        <feFlood flood-opacity="0" result="BackgroundImageFix"></feFlood>
        <feColorMatrix in="SourceAlpha" type="matrix" values="0 0 0 0 0 0 0 0 0 0 0 0 0 0 0 0 0 0 127 0" result="hardAlpha"></feColorMatrix>
        <feOffset dy="4"></feOffset>
        <feGaussianBlur stdDeviation="2"></feGaussianBlur>
        <feColorMatrix type="matrix" values="0 0 0 0 1 0 0 0 0 0.482353 0 0 0 0 0.345098 0 0 0 0.13 0"></feColorMatrix>
        <feBlend mode="normal" in2="BackgroundImageFix" result="effect1_dropShadow_2831_1177"></feBlend>
        <feBlend mode="normal" in="SourceGraphic" in2="effect1_dropShadow_2831_1177" result="shape"></feBlend>
      </filter>
      <filter id="filter15_d_2831_1177" x="56.1936" y="56.1934" width="13" height="13" filterUnits="userSpaceOnUse" color-interpolation-filters="sRGB">
        <feFlood flood-opacity="0" result="BackgroundImageFix"></feFlood>
        <feColorMatrix in="SourceAlpha" type="matrix" values="0 0 0 0 0 0 0 0 0 0 0 0 0 0 0 0 0 0 127 0" result="hardAlpha"></feColorMatrix>
        <feOffset dy="4"></feOffset>
        <feGaussianBlur stdDeviation="2"></feGaussianBlur>
        <feColorMatrix type="matrix" values="0 0 0 0 1 0 0 0 0 0.482353 0 0 0 0 0.345098 0 0 0 0.13 0"></feColorMatrix>
        <feBlend mode="normal" in2="BackgroundImageFix" result="effect1_dropShadow_2831_1177"></feBlend>
        <feBlend mode="normal" in="SourceGraphic" in2="effect1_dropShadow_2831_1177" result="shape"></feBlend>
      </filter>
    </defs>
  </symbol>
  <symbol id="homeRun" viewBox="0 0 12 12">
<g clip-path="url(#clip0_2831_1150)">
<path d="M11.7985 5.36427L6.41446 0.458394C6.17814 0.243027 5.82177 0.243051 5.58554 0.458371L0.201516 5.3643C0.0122119 5.5368 -0.0503192 5.80258 0.042165 6.04138C0.134673 6.28019 0.359907 6.43448 0.616008 6.43448H1.47593V11.3498C1.47593 11.5447 1.63394 11.7027 1.82883 11.7027H4.77993C4.97481 11.7027 5.13283 11.5447 5.13283 11.3498V8.36537H6.86724V11.3498C6.86724 11.5447 7.02526 11.7027 7.22014 11.7027H10.1711C10.366 11.7027 10.524 11.5447 10.524 11.3498V6.43448H11.3841C11.6402 6.43448 11.8654 6.28016 11.9579 6.04138C12.0503 5.80256 11.9878 5.5368 11.7985 5.36427Z" fill="#1E2123"/>
<path d="M10.4319 1.00195H8.06189L10.7848 3.47779V1.35483C10.7848 1.15995 10.6268 1.00195 10.4319 1.00195Z" fill="#1E2123"/>
</g>
<defs>
<clipPath id="clip0_2831_1150">
<rect width="12" height="12" fill="white"/>
</clipPath>
</defs>
</symbol>
<symbol id="flatsMark" viewBox="0 0 13 15">
<path d="M11.9073 2.61628C10.8085 0.941861 8.99454 0 6.95385 0C4.93059 0 3.11664 0.941861 1.98292 2.61628C0.849195 4.25581 0.587567 6.34884 1.28524 8.18023C1.4771 8.6686 1.77361 9.17442 2.15733 9.62791L6.57013 14.8256C6.67478 14.9302 6.77943 15 6.9364 15C7.09338 15 7.19803 14.9302 7.30268 14.8256L11.7329 9.62791C12.1166 9.17442 12.4306 8.68605 12.605 8.18023C13.3027 6.34884 13.0411 4.25581 11.9073 2.61628ZM6.95385 8.7907C5.45385 8.7907 4.21547 7.55233 4.21547 6.05233C4.21547 4.55233 5.45385 3.31395 6.95385 3.31395C8.45385 3.31395 9.69222 4.55233 9.69222 6.05233C9.69222 7.55233 8.47129 8.7907 6.95385 8.7907Z" />
</symbol>
<symbol id="adsMark" viewBox="0 0 9 10">
<path d="M7.33796 1.74419C6.6054 0.627907 5.3961 0 4.03564 0C2.6868 0 1.4775 0.627907 0.721683 1.74419C-0.0341305 2.83721 -0.208549 4.23256 0.256567 5.45349C0.384474 5.77907 0.582148 6.11628 0.837962 6.4186L3.77982 9.88372C3.84959 9.95349 3.91936 10 4.02401 10C4.12866 10 4.19843 9.95349 4.2682 9.88372L7.22168 6.4186C7.4775 6.11628 7.6868 5.7907 7.80308 5.45349C8.2682 4.23256 8.09378 2.83721 7.33796 1.74419ZM4.03564 5.86047C3.03564 5.86047 2.21006 5.03488 2.21006 4.03488C2.21006 3.03488 3.03564 2.2093 4.03564 2.2093C5.03564 2.2093 5.86122 3.03488 5.86122 4.03488C5.86122 5.03488 5.04727 5.86047 4.03564 5.86047Z" fill="#8291A3"/>
</symbol>
<symbol id="addressMark" viewBox="0 0 13 15">
<path d="M11.0069 2.61628C9.90811 0.941861 8.09415 0 6.05346 0C4.0302 0 2.21625 0.941861 1.08253 2.61628C-0.0511958 4.25581 -0.312824 6.34884 0.384851 8.18023C0.576711 8.6686 0.873223 9.17442 1.25694 9.62791L5.66973 14.8256C5.77439 14.9302 5.87904 15 6.03601 15C6.19299 15 6.29764 14.9302 6.40229 14.8256L10.8325 9.62791C11.2162 9.17442 11.5302 8.68605 11.7046 8.18023C12.4023 6.34884 12.1407 4.25581 11.0069 2.61628ZM6.05346 8.7907C4.55346 8.7907 3.31508 7.55233 3.31508 6.05233C3.31508 4.55233 4.55346 3.31395 6.05346 3.31395C7.55346 3.31395 8.79183 4.55233 8.79183 6.05233C8.79183 7.55233 7.5709 8.7907 6.05346 8.7907Z" fill="white"/>
</symbol>
<symbol id="clock" viewBox="0 0 15 15">
<g clip-path="url(#clip0_2831_1344)">
<path d="M7.5 0C3.36443 0 0 3.36443 0 7.5C0 11.6356 3.36443 15 7.5 15C11.6356 15 15 11.6356 15 7.5C15 3.36443 11.6356 0 7.5 0ZM7.5 13.3607C4.26835 13.3607 1.63934 10.7317 1.63934 7.5C1.63934 4.26851 4.26835 1.63934 7.5 1.63934C10.7317 1.63934 13.3607 4.26851 13.3607 7.5C13.3607 10.7317 10.7317 13.3607 7.5 13.3607Z" fill="white"/>
<path d="M8.14909 7.5093V4.36588C8.14909 4.01489 7.86467 3.73047 7.51382 3.73047C7.16286 3.73047 6.87842 4.01489 6.87842 4.36588V7.71229C6.87842 7.72228 6.88088 7.73166 6.88136 7.74165C6.87301 7.91443 6.93253 8.08985 7.06448 8.22183L9.43088 10.5881C9.67909 10.8363 10.0814 10.8363 10.3294 10.5881C10.5774 10.3399 10.5776 9.93757 10.3294 9.68953L8.14909 7.5093Z" fill="white"/>
</g>
<defs>
<clipPath id="clip0_2831_1344">
<rect width="15" height="15" fill="white"/>
</clipPath>
</defs>
</symbol>

<symbol id="mail" viewBox="0 0 15 15">
<g clip-path="url(#clip0_2831_1336)">
<path d="M13.6603 13.3928C13.9975 13.3928 14.2896 13.2814 14.538 13.0616L10.2883 8.81169C10.1863 8.8847 10.0875 8.9557 9.99411 9.02321C9.67608 9.25753 9.41796 9.44037 9.21976 9.57139C9.02158 9.70271 8.75791 9.83656 8.42877 9.97322C8.09941 10.11 7.79257 10.1782 7.50792 10.1782H7.49959H7.49126C7.20659 10.1782 6.89975 10.1101 6.57042 9.97322C6.24108 9.83656 5.97741 9.70271 5.77942 9.57139C5.58124 9.44037 5.32326 9.25756 5.00507 9.02321C4.9164 8.95821 4.81806 8.88688 4.71174 8.81055L0.461182 13.0616C0.709523 13.2814 1.00187 13.3928 1.33902 13.3928H13.6603Z" />
<path d="M0.845514 6.13653C0.52751 5.92452 0.245509 5.68171 0 5.4082V11.8741L3.7457 8.12838C2.99635 7.60523 2.03085 6.94204 0.845514 6.13653Z" />
<path d="M14.1632 6.13653C13.0231 6.90822 12.0541 7.57255 11.2561 8.12988L15.0003 11.8742V5.4082C14.7602 5.67621 14.4812 5.91886 14.1632 6.13653Z" />
<path d="M13.6607 1.60742H1.33944C0.909593 1.60742 0.579117 1.75258 0.347606 2.04258C0.115904 2.33273 0.000244141 2.69559 0.000244141 3.13075C0.000244141 3.48225 0.153731 3.86311 0.46057 4.27343C0.767408 4.68359 1.09391 5.00576 1.43991 5.24011C1.62959 5.37412 2.2016 5.77178 3.15594 6.43296C3.67111 6.78996 4.11913 7.10113 4.50413 7.36965C4.83229 7.5983 5.1153 7.79631 5.34896 7.96064C5.37578 7.97946 5.41797 8.00963 5.47396 8.04966C5.53428 8.09299 5.61062 8.14798 5.70479 8.21598C5.88614 8.34713 6.03679 8.45315 6.15678 8.53415C6.27661 8.61516 6.42179 8.70566 6.59211 8.80615C6.76229 8.90651 6.9228 8.98197 7.07346 9.03216C7.22414 9.08233 7.36363 9.10749 7.49195 9.10749H7.50029H7.50862C7.63691 9.10749 7.77643 9.08233 7.92714 9.03216C8.07777 8.98197 8.23815 8.90667 8.40846 8.80615C8.57862 8.70566 8.72361 8.61497 8.84382 8.53415C8.96381 8.45315 9.11446 8.34716 9.29584 8.21598C9.38982 8.14798 9.46615 8.09297 9.52647 8.0498C9.58249 8.0096 9.62465 7.97962 9.65164 7.96064C9.83367 7.83398 10.1173 7.63678 10.4987 7.37196C11.1927 6.8898 12.2147 6.18012 13.569 5.24011C13.9764 4.9556 14.3167 4.61227 14.5902 4.2106C14.8632 3.80894 15.0001 3.38761 15.0001 2.94676C15.0001 2.57843 14.8674 2.26326 14.6025 2.00075C14.3374 1.73858 14.0234 1.60742 13.6607 1.60742Z" />
</g>
<defs>
<clipPath id="clip0_2831_1336">
<rect width="15" height="15" />
</clipPath>
</defs>
</symbol>
<symbol id="phone" viewBox="0 0 15 15">
<path d="M10.2272 0L4.77265 0C3.83174 0 3.06812 0.763626 3.06812 1.70454V13.2955C3.06812 14.2364 3.83174 15 4.77265 15H10.2272C11.1681 15 11.9317 14.2364 11.9317 13.2955V1.70454C11.9317 0.763626 11.1681 0 10.2272 0ZM7.49995 14.3182C6.93403 14.3182 6.47722 13.8614 6.47722 13.2955C6.47722 12.7295 6.93403 12.2727 7.49995 12.2727C8.06587 12.2727 8.52267 12.7295 8.52267 13.2955C8.52267 13.8614 8.06584 14.3182 7.49995 14.3182ZM10.5681 11.5909H4.43176V2.04546H10.5681V11.5909Z"/>
</symbol>

<symbol id="tg" viewBox="0 0 18 18">
<path d="M15.0172 3.24657L2.7047 7.99449C1.86442 8.33199 1.86928 8.80074 2.55053 9.00977L5.71164 9.99588L13.0255 5.38129C13.3714 5.17088 13.6873 5.28407 13.4276 5.51463L7.50192 10.8625H7.50053L7.50192 10.8632L7.28386 14.1216C7.60331 14.1216 7.74428 13.975 7.92345 13.8021L9.45886 12.3091L12.6526 14.6681C13.2415 14.9924 13.6644 14.8257 13.8109 14.123L15.9075 4.2424C16.1221 3.38199 15.579 2.9924 15.0172 3.24657Z" />
</symbol>

<symbol id="viber" viewBox="0 0 18 18">
<path d="M8.90988 1.96994C7.73505 1.98581 5.20718 2.17867 3.79311 3.47434C2.74339 4.51795 2.3766 6.05652 2.33387 7.96188C2.29726 9.85992 2.25454 13.4241 5.69053 14.3951V15.872C5.69053 15.872 5.66734 16.464 6.05794 16.5861C6.54007 16.7386 6.81471 16.2815 7.27244 15.7933L8.12686 14.829C10.4765 15.0243 12.2769 14.5733 12.4844 14.5062C12.9604 14.3536 15.6464 14.0112 16.0858 10.4464C16.5374 6.76569 15.8661 4.44655 14.6577 3.39683L14.6516 3.39561C14.2854 3.05994 12.8207 1.99191 9.54337 1.97971C9.54337 1.97971 9.30169 1.96445 8.90988 1.96994V1.96994ZM8.95077 3.00562C9.28338 3.00379 9.48783 3.01783 9.48783 3.01783C12.2586 3.02393 13.5836 3.86005 13.8948 4.14079C14.914 5.01291 15.4377 7.10441 15.0544 10.1779C14.6882 13.1562 12.5094 13.3454 12.1066 13.4735C11.9358 13.5284 10.349 13.919 8.35206 13.7909C8.35206 13.7909 6.86353 15.5858 6.3997 16.0496C6.32647 16.1289 6.24103 16.1534 6.1861 16.1411C6.10676 16.1228 6.08235 16.0252 6.08845 15.8909L6.10066 13.4381C3.18891 12.6325 3.35979 9.592 3.39031 8.00522C3.42693 6.41843 3.72597 5.11727 4.61091 4.23843C5.80527 3.1582 7.95231 3.01173 8.95016 3.00562H8.95077ZM9.17047 4.59241C9.14646 4.59233 9.12267 4.59699 9.10046 4.60612C9.07825 4.61526 9.05806 4.62869 9.04105 4.64564C9.02404 4.66259 9.01054 4.68274 9.00133 4.70492C8.99212 4.7271 8.98738 4.75087 8.98738 4.77489C8.98738 4.82345 9.00667 4.87002 9.04101 4.90435C9.07535 4.93869 9.12192 4.95798 9.17047 4.95798C9.6242 4.94932 10.0751 5.03062 10.4973 5.19717C10.9194 5.36372 11.3044 5.61223 11.63 5.92836C12.2952 6.57528 12.6193 7.44191 12.6315 8.57707C12.6315 8.60111 12.6362 8.62492 12.6454 8.64714C12.6546 8.66935 12.6681 8.68953 12.6851 8.70653C12.7021 8.72353 12.7223 8.73702 12.7445 8.74622C12.7667 8.75542 12.7905 8.76016 12.8146 8.76016V8.75467C12.8631 8.75467 12.9097 8.73538 12.9441 8.70104C12.9784 8.6667 12.9977 8.62014 12.9977 8.57158C13.0203 8.03774 12.9341 7.50487 12.7441 7.00544C12.5542 6.50601 12.2646 6.05046 11.893 5.66654C11.1668 4.95859 10.2501 4.59241 9.16986 4.59241H9.17047ZM6.75734 5.01352C6.62755 4.99502 6.49532 5.02082 6.38201 5.08675H6.37468C6.12446 5.23323 5.89376 5.41632 5.67406 5.66044C5.50927 5.85573 5.41712 6.05042 5.39271 6.23961C5.37835 6.35057 5.38877 6.46334 5.42322 6.56979L5.43543 6.57589C5.62354 7.12891 5.869 7.66074 6.16779 8.16267C6.55509 8.86563 7.03094 9.51603 7.58369 10.0979L7.602 10.1224L7.62641 10.1407L7.64472 10.159L7.66303 10.1773C8.24723 10.7314 8.89935 11.2092 9.60379 11.5993C10.4094 12.0387 10.8988 12.2462 11.1918 12.3316V12.3377C11.2772 12.3622 11.3554 12.3744 11.4347 12.3744C11.6847 12.3561 11.9215 12.2547 12.1072 12.0863C12.3453 11.8727 12.5345 11.6359 12.6748 11.3857V11.3796C12.8152 11.1171 12.7664 10.8663 12.565 10.6954C12.1591 10.3404 11.7196 10.0256 11.2528 9.75556C10.9416 9.58468 10.6242 9.68843 10.496 9.85931L10.2214 10.2066C10.081 10.3775 9.82472 10.353 9.82472 10.353L9.81739 10.3591C7.91325 9.87091 7.4067 7.94297 7.4067 7.94297C7.4067 7.94297 7.38229 7.68054 7.55928 7.54627L7.90105 7.27163C8.06583 7.13737 8.18179 6.82001 8.0048 6.50876C7.73514 6.04171 7.42034 5.60223 7.06493 5.19661C6.98762 5.10073 6.87848 5.03576 6.75734 5.01352V5.01352ZM9.48722 5.55669C9.43866 5.55685 9.39216 5.57629 9.35794 5.61074C9.32371 5.64519 9.30458 5.69183 9.30474 5.74039C9.3049 5.78895 9.32435 5.83545 9.3588 5.86967C9.39325 5.90389 9.43988 5.92303 9.48844 5.92287C10.0992 5.93347 10.6808 6.18587 11.1057 6.62471C11.2974 6.83619 11.4448 7.08395 11.5392 7.35334C11.6335 7.62274 11.6729 7.90831 11.655 8.19319C11.6552 8.24164 11.6745 8.28806 11.7089 8.32226C11.7432 8.35646 11.7896 8.37567 11.8381 8.37567L11.8442 8.38299C11.8683 8.38299 11.8922 8.37824 11.9144 8.369C11.9367 8.35976 11.9569 8.34622 11.9739 8.32915C11.9909 8.31209 12.0044 8.29183 12.0135 8.26955C12.0227 8.24726 12.0274 8.22339 12.0273 8.19929C12.0456 7.47303 11.8198 6.86273 11.3743 6.37449C10.9288 5.88625 10.3062 5.61161 9.51285 5.55669C9.50432 5.55609 9.49575 5.55609 9.48722 5.55669V5.55669ZM9.78627 6.54476C9.76178 6.54404 9.7374 6.54815 9.7145 6.55686C9.6916 6.56556 9.67065 6.57869 9.65282 6.59549C9.635 6.61229 9.62066 6.63244 9.61062 6.65479C9.60059 6.67713 9.59505 6.70123 9.59433 6.72572C9.59361 6.7502 9.59772 6.77459 9.60642 6.79749C9.61512 6.82038 9.62825 6.84134 9.64505 6.85917C9.66186 6.87699 9.68201 6.89133 9.70435 6.90136C9.7267 6.9114 9.7508 6.91694 9.77528 6.91766C10.3795 6.94817 10.6724 7.25332 10.709 7.88194C10.7106 7.92943 10.7306 7.97445 10.7648 8.00747C10.7989 8.0405 10.8446 8.05895 10.8921 8.05892H10.8982C10.9228 8.05816 10.947 8.05245 10.9693 8.04213C10.9917 8.03181 11.0117 8.0171 11.0282 7.99887C11.0447 7.98064 11.0574 7.95927 11.0655 7.93603C11.0736 7.9128 11.0769 7.88817 11.0752 7.86363C11.0325 7.04582 10.587 6.58749 9.79359 6.54476C9.79115 6.54472 9.78871 6.54472 9.78627 6.54476V6.54476Z"/>
</symbol>

<symbol id="wa" viewBox="0 0 18 18">
<path d="M14.0557 3.98872C13.4072 3.3355 12.6354 2.81763 11.7851 2.46518C10.9348 2.11272 10.023 1.9327 9.10251 1.93558C5.24438 1.93558 2.10418 5.07578 2.10418 8.93656C2.10418 10.1702 2.42738 11.3765 3.03935 12.4362L2.0459 16.0647L5.75744 15.0907C6.78353 15.6496 7.93319 15.9429 9.10163 15.9437H9.10428C12.9624 15.9437 16.1053 12.8035 16.1053 8.94274C16.1076 8.02262 15.9276 7.11115 15.5757 6.26099C15.2237 5.41083 14.7068 4.63883 14.0548 3.9896L14.0557 3.98872ZM9.10428 14.7622C8.06151 14.7624 7.03789 14.482 6.1407 13.9506L5.92788 13.8235L3.7255 14.4001L4.31362 12.2534L4.17586 12.0326C3.59106 11.1061 3.28201 10.0322 3.28485 8.93656C3.28672 7.39303 3.90089 5.9133 4.99258 4.82211C6.08427 3.73091 7.56428 3.11741 9.10781 3.11625C10.6611 3.11625 12.1244 3.7238 13.222 4.82145C13.7637 5.36117 14.1931 6.00289 14.4853 6.70951C14.7775 7.41613 14.9268 8.17366 14.9246 8.93833C14.9219 12.1501 12.3116 14.7613 9.10428 14.7613V14.7622ZM12.2948 10.4025C12.1208 10.3141 11.2599 9.89204 11.1 9.83376C10.9402 9.77548 10.8236 9.74545 10.7053 9.92206C10.5896 10.096 10.2532 10.4908 10.1507 10.6091C10.0483 10.7248 9.94673 10.7416 9.77276 10.6532C9.5988 10.5649 9.03275 10.3804 8.36515 9.78431C7.8459 9.32069 7.49356 8.7467 7.39112 8.57273C7.28869 8.39877 7.37964 8.30252 7.46883 8.21686C7.54919 8.13915 7.6428 8.01287 7.73111 7.91043C7.81941 7.808 7.84679 7.73647 7.90507 7.61814C7.96335 7.50245 7.93509 7.40002 7.89094 7.31171C7.84679 7.2234 7.49621 6.36241 7.35315 6.01183C7.21274 5.6692 7.06615 5.71689 6.95842 5.71071C6.85598 5.70541 6.7403 5.70541 6.62462 5.70541C6.50894 5.70541 6.31819 5.74956 6.15836 5.92352C5.99852 6.09749 5.54551 6.52225 5.54551 7.38324C5.54551 8.24423 6.1716 9.0752 6.25991 9.19353C6.34822 9.30921 7.49356 11.078 9.24822 11.8348C9.66503 12.0141 9.99088 12.1218 10.2443 12.2048C10.6638 12.3373 11.0444 12.3178 11.3455 12.2737C11.682 12.2242 12.3805 11.8516 12.5271 11.4427C12.6736 11.0338 12.6736 10.6842 12.6295 10.6117C12.588 10.534 12.4723 10.4908 12.2957 10.4016L12.2948 10.4025Z" />
</symbol>

<symbol id="warning" viewBox="0 0 35 35">
<path d="M17.5 0C7.875 0 0 7.875 0 17.5C0 27.125 7.875 35 17.5 35C27.125 35 35 27.125 35 17.5C35 7.875 27.125 0 17.5 0ZM17.5 3.5C19.425 3.5 20.825 5.075 20.65 7L19.25 21H15.75L15.05 14L14.35 7C14.175 5.075 15.575 3.5 17.5 3.5ZM17.5 31.5C15.575 31.5 14 29.925 14 28C14 26.075 15.575 24.5 17.5 24.5C19.425 24.5 21 26.075 21 28C21 29.925 19.425 31.5 17.5 31.5Z" fill="#5039BD"></path>
</symbol>

<symbol id="user" viewBox="0 0 20 20">
<g clip-path="url(#clip0_2831_1302)">
<path d="M10.0013 0C7.14418 0 4.80859 2.33559 4.80859 5.19275C4.80859 8.04991 7.14418 10.3855 10.0013 10.3855C12.8585 10.3855 15.1941 8.04991 15.1941 5.19275C15.1941 2.33559 12.8585 0 10.0013 0Z"/>
<path d="M18.913 14.536C18.7769 14.1959 18.5955 13.8784 18.3915 13.5836C17.3484 12.0416 15.7384 11.0212 13.9244 10.7718C13.6976 10.7492 13.4482 10.7945 13.2668 10.9305C12.3144 11.6335 11.1806 11.9963 10.0014 11.9963C8.82228 11.9963 7.68851 11.6335 6.73612 10.9305C6.5547 10.7945 6.30526 10.7265 6.07853 10.7718C4.26446 11.0212 2.63183 12.0416 1.61143 13.5836C1.40735 13.8784 1.22592 14.2186 1.0899 14.536C1.02189 14.6721 1.04454 14.8308 1.11256 14.9669C1.29398 15.2843 1.52071 15.6018 1.72479 15.8739C2.04224 16.3048 2.38239 16.6902 2.76789 17.053C3.08534 17.3705 3.44815 17.6653 3.81099 17.9601C5.60236 19.2979 7.75657 20.0009 9.97879 20.0009C12.201 20.0009 14.3552 19.2979 16.1466 17.9601C16.5094 17.688 16.8722 17.3705 17.1897 17.053C17.5525 16.6902 17.9153 16.3047 18.2328 15.8739C18.4595 15.5791 18.6636 15.2843 18.845 14.9669C18.9583 14.8308 18.981 14.672 18.913 14.536Z"/>
</g>
<defs>
<clipPath id="clip0_2831_1302">
<rect width="20" height="20"/>
</clipPath>
</defs>
</symbol>

<symbol id="arrow" viewBox="0 0 12 7"  xmlns="http://www.w3.org/2000/svg">

<path d="M1.5 1.38477L6 5.64152L10.5 1.38477" stroke="#4E64F9" stroke-width="2" stroke-linecap="round" stroke-linejoin="round"/>
</symbol>

<symbol id="password" viewBox="0 0 16 21" fill="none" xmlns="http://www.w3.org/2000/svg">
<path d="M13.625 8H13V5.5C13 2.7425 10.7575 0.5 8 0.5C5.2425 0.5 3 2.7425 3 5.5V8H2.375C1.34167 8 0.5 8.84083 0.5 9.875V18.625C0.5 19.6592 1.34167 20.5 2.375 20.5H13.625C14.6583 20.5 15.5 19.6592 15.5 18.625V9.875C15.5 8.84083 14.6583 8 13.625 8ZM4.66667 5.5C4.66667 3.66167 6.16167 2.16667 8 2.16667C9.83833 2.16667 11.3333 3.66167 11.3333 5.5V8H4.66667V5.5ZM8.83333 14.435V16.3333C8.83333 16.7933 8.46083 17.1667 8 17.1667C7.53917 17.1667 7.16667 16.7933 7.16667 16.3333V14.435C6.67083 14.1458 6.33333 13.6142 6.33333 13C6.33333 12.0808 7.08083 11.3333 8 11.3333C8.91917 11.3333 9.66667 12.0808 9.66667 13C9.66667 13.6142 9.32917 14.1458 8.83333 14.435Z" fill="#686868"/>
</symbol>

<symbol id="error" viewBox="0 0 21 20" xmlns="http://www.w3.org/2000/svg">
<g clip-path="url(#clip0_2831_1644)">
<path d="M10.5 0C5 0 0.5 4.5 0.5 10C0.5 15.5 5 20 10.5 20C16 20 20.5 15.5 20.5 10C20.5 4.5 16 0 10.5 0ZM10.5 2C11.6 2 12.4 2.9 12.3 4L11.5 12H9.5L8.7 4C8.6 2.9 9.4 2 10.5 2ZM10.5 18C9.4 18 8.5 17.1 8.5 16C8.5 14.9 9.4 14 10.5 14C11.6 14 12.5 14.9 12.5 16C12.5 17.1 11.6 18 10.5 18Z" />
</g>
<defs>
<clipPath id="clip0_2831_1644">
<rect width="20" height="20" fill="white" transform="translate(0.5)"/>
</clipPath>
</defs>
</symbol>

<symbol id="home" viewBox="0 0 12 12" xmlns="http://www.w3.org/2000/svg">
<g clip-path="url(#clip0_305_2083)">
<path d="M11.7985 5.36427L6.41446 0.458394C6.17814 0.243027 5.82177 0.243051 5.58554 0.458371L0.201516 5.3643C0.0122119 5.5368 -0.0503192 5.80258 0.042165 6.04138C0.134673 6.28019 0.359907 6.43448 0.616008 6.43448H1.47593V11.3498C1.47593 11.5447 1.63394 11.7027 1.82883 11.7027H4.77993C4.97481 11.7027 5.13283 11.5447 5.13283 11.3498V8.36537H6.86724V11.3498C6.86724 11.5447 7.02526 11.7027 7.22014 11.7027H10.1711C10.366 11.7027 10.524 11.5447 10.524 11.3498V6.43448H11.3841C11.6402 6.43448 11.8654 6.28016 11.9579 6.04138C12.0503 5.80256 11.9878 5.5368 11.7985 5.36427Z" fill="#664EF9"/>
<path d="M10.4317 1.00195H8.06177L10.7846 3.47779V1.35483C10.7846 1.15995 10.6266 1.00195 10.4317 1.00195Z" fill="#664EF9"/>
</g>
<defs>
<clipPath id="clip0_305_2083">
<rect width="12" height="12" fill="white"/>
</clipPath>
</defs>
</symbol>

<symbol id="search" viewBox="0 0 18 18" xmlns="http://www.w3.org/2000/svg">
<path d="M16.8676 15.2581L13.5441 11.9344C13.3941 11.7844 13.1907 11.7011 12.9774 11.7011H12.434C13.3541 10.5243 13.9008 9.04417 13.9008 7.43401C13.9008 3.60364 10.7973 0.5 6.96711 0.5C3.13693 0.5 0.0334473 3.60364 0.0334473 7.43401C0.0334473 11.2644 3.13693 14.368 6.96711 14.368C8.57718 14.368 10.0573 13.8213 11.234 12.9012V13.4446C11.234 13.658 11.3173 13.8613 11.4673 14.0113L14.7908 17.335C15.1042 17.6483 15.6108 17.6483 15.9209 17.335L16.8642 16.3916C17.1776 16.0782 17.1776 15.5715 16.8676 15.2581ZM6.96711 11.7011C4.61033 11.7011 2.70024 9.79424 2.70024 7.43401C2.70024 5.07711 4.607 3.16693 6.96711 3.16693C9.32388 3.16693 11.234 5.07378 11.234 7.43401C11.234 9.79091 9.32722 11.7011 6.96711 11.7011Z" fill="white"/>
</symbol>

<symbol id="arrowRightWhite" viewBox="0 0 9 16" fill="none" xmlns="http://www.w3.org/2000/svg">
<path d="M1 14.2852L7.57143 7.71373L0.999999 1.1423" stroke="white" stroke-width="2" stroke-linecap="round" stroke-linejoin="round"/>
</symbol>

<symbol id="arrowRightBlack" viewBox="0 0 7 12" fill="none" xmlns="http://www.w3.org/2000/svg">
<path d="M1.21484 10.75L5.96484 6L1.21484 1.25" stroke="#242424" stroke-width="2" stroke-linecap="round" stroke-linejoin="round"/>
</symbol>

<symbol id="arrowRightBlue" viewBox="0 0 9 16" fill="none" xmlns="http://www.w3.org/2000/svg">
<path d="M1 14.2656L7.57143 7.6942L0.999999 1.12277" stroke="#664EF9" stroke-width="2" stroke-linecap="round" stroke-linejoin="round"/>
</symbol>




<symbol id="settings" viewBox="0 0 19 18" xmlns="http://www.w3.org/2000/svg">
<g clip-path="url(#clip0_2831_2287)">
<path d="M6.91109 4.29814C6.91109 2.90551 5.937 1.73697 4.63453 1.4358V0.661897C4.63453 0.296309 4.33822 0 3.97264 0C3.60705 0 3.31074 0.296309 3.31074 0.661897V1.4358C2.00835 1.73689 1.03418 2.90551 1.03418 4.29814C1.03418 5.69077 2.00827 6.85931 3.31074 7.16048V17.3381C3.31074 17.7037 3.60705 18 3.97264 18C4.33822 18 4.63453 17.7037 4.63453 17.3381V7.16048C5.937 6.85931 6.91109 5.69077 6.91109 4.29814ZM2.35805 4.29814C2.35805 3.40781 3.08238 2.68348 3.97271 2.68348C4.86303 2.68348 5.58737 3.40781 5.58737 4.29814C5.58737 5.18846 4.86303 5.9128 3.97271 5.9128C3.08238 5.9128 2.35805 5.18846 2.35805 4.29814Z" fill="#664EF9"/>
<path d="M9.66188 8.89222V0.661897C9.66188 0.296309 9.36557 0 8.99998 0C8.63439 0 8.33808 0.296309 8.33808 0.661897V8.89222C7.03569 9.19331 6.06152 10.3619 6.06152 11.7546C6.06152 13.1472 7.03562 14.3157 8.33808 14.6169V17.3381C8.33808 17.7037 8.63439 18 8.99998 18C9.36557 18 9.66188 17.7037 9.66188 17.3381V14.6169C10.9643 14.3158 11.9384 13.1472 11.9384 11.7546C11.9384 10.3619 10.9643 9.19338 9.66188 8.89222ZM7.38539 11.7546C7.38539 10.8642 8.10973 10.1399 9.00005 10.1399C9.89038 10.1399 10.6147 10.8642 10.6147 11.7546C10.6147 12.6449 9.89038 13.3692 9.00005 13.3692C8.10973 13.3692 7.38539 12.6449 7.38539 11.7546Z" fill="#664EF9"/>
<path d="M16.9658 7.20151C16.9658 5.80888 15.9917 4.64034 14.6892 4.33918V0.661897C14.6892 0.296309 14.3929 0 14.0273 0C13.6617 0 13.3654 0.296309 13.3654 0.661897V4.33918C12.063 4.64027 11.0889 5.80888 11.0889 7.20151C11.0889 8.59415 12.063 9.76269 13.3654 10.0639V17.3381C13.3654 17.7037 13.6617 18 14.0273 18C14.3929 18 14.6892 17.7037 14.6892 17.3381V10.0639C15.9917 9.76269 16.9658 8.59415 16.9658 7.20151ZM12.4127 7.20151C12.4127 6.31119 13.1371 5.58685 14.0274 5.58685C14.9177 5.58685 15.6421 6.31119 15.6421 7.20151C15.6421 8.09184 14.9177 8.81618 14.0274 8.81618C13.1371 8.81618 12.4127 8.09184 12.4127 7.20151Z" fill="#664EF9"/>
</g>
<defs>
<clipPath id="clip0_2831_2287">
<rect width="18" height="18" fill="white" transform="translate(0.5)"/>
</clipPath>
</defs>
</symbol>

<symbol id="arrowDown" viewBox="0 0 10 10" fill="none" xmlns="http://www.w3.org/2000/svg">
<path d="M2.5 3.75L5 6.25L7.5 3.75" stroke="#FEB700" stroke-linecap="round" stroke-linejoin="round"/>
</symbol>

<symbol id="presentationBg" viewBox="0 0 271 227" fill="none" xmlns="http://www.w3.org/2000/svg">
<path d="M126.837 401.723C120.67 407.889 111.141 407.889 104.974 401.723L4.63157 301.941C-1.53474 295.774 -1.53474 286.245 4.63157 280.078L217.089 67.0603C223.255 60.894 232.785 60.894 238.951 67.0603L339.294 167.403C345.46 173.569 345.46 183.099 339.294 189.265L126.837 401.723Z" fill="#FFC200"/>
<path d="M119.997 213.015C128.309 204.689 134.691 197.585 134.253 197.147C133.815 196.71 126.722 203.105 118.41 211.431C110.098 219.756 103.716 226.86 104.154 227.298C104.592 227.735 111.685 221.341 119.997 213.015Z" fill="#FFDA00"/>
<path d="M118.243 212.978C126.577 221.283 133.688 227.661 134.125 227.222C134.562 226.783 128.16 219.695 119.825 211.39C111.491 203.084 104.38 196.707 103.943 197.146C103.506 197.584 109.908 204.673 118.243 212.978Z" fill="#FFDA00"/>
<path d="M221.68 39.8026C221.68 61.665 220.559 79.6033 219.438 79.6033C218.316 79.6033 217.195 61.665 217.195 39.8026C217.195 17.9403 218.316 0.00195313 219.438 0.00195313C220.559 0.00195313 221.68 17.9403 221.68 39.8026Z" fill="#FFDA00"/>
<path d="M219.435 42.0451C241.417 42.0451 259.236 41.0412 259.236 39.8028C259.236 38.5645 241.417 37.5605 219.435 37.5605C197.454 37.5605 179.635 38.5645 179.635 39.8028C179.635 41.0412 197.454 42.0451 219.435 42.0451Z" fill="#FFDA00"/>
</symbol>

<symbol id="target" viewBox="0 0 139 139" fill="none" xmlns="http://www.w3.org/2000/svg">
<g clip-path="url(#clip0_2831_1744)">
<path d="M48.922 39.9641L57.4843 31.4915C60.6822 28.2936 66.8326 32.3282 63.5098 36.2373L53.1419 48.4352C52.736 48.9125 52.2696 49.3357 51.7551 49.6936C50.0838 50.7617 48.0933 51.1176 46.132 51.1176H30.7462C29.6335 51.1176 28.5213 51.182 27.416 51.3104L22.9909 51.8075L13.8125 42.9008C13.8125 42.9008 19.0192 33.0682 29.233 35.8943C31.1432 36.4232 33.1198 36.675 35.1019 36.675H45.2136C49.9738 36.675 50.0114 44.2385 45.1739 44.2385H36.3713" fill="white"/>
<path d="M16.9617 63.3978L25.6935 54.4395C25.696 54.4371 25.696 54.4331 25.6935 54.4306L10.8772 40.0525C10.8747 40.05 10.8707 40.0505 10.8683 40.0525L2.0542 49.203L16.9617 63.3978Z" fill="#FFD54F" fill-opacity="0.4"/>
<path d="M12.5318 13.3267C9.76411 13.5889 7.59863 15.9194 7.59863 18.756V24.5629C7.59863 25.5656 8.41149 26.379 9.41468 26.379H21.8673C22.8704 26.379 23.6833 25.5656 23.6833 24.5629V18.756C23.6833 15.9174 21.5149 13.5849 18.7437 13.3262" fill="#FFD54F"/>
<path d="M21.7343 8.06661C21.7343 11.432 19.0062 14.1601 15.6408 14.1601C12.2754 14.1601 9.54736 11.432 9.54736 8.06661C9.54736 4.70118 12.2754 1.97266 15.6408 1.97266C19.0062 1.97266 21.7343 4.70118 21.7343 8.06661Z" fill="white"/>
<path d="M28.6167 13.3267C25.8491 13.5889 23.6831 15.9194 23.6831 18.756V24.5629C23.6831 25.5656 24.4965 26.379 25.4996 26.379H37.9522C38.9554 26.379 39.7683 25.5656 39.7683 24.5629V18.756C39.7683 15.9174 37.5993 13.5849 34.8287 13.3262" fill="url(#paint0_linear_2831_1744)"/>
<path d="M37.8192 8.06661C37.8192 11.432 35.0912 14.1601 31.7258 14.1601C28.3604 14.1601 25.6318 11.432 25.6318 8.06661C25.6318 4.70118 28.3604 1.97266 31.7258 1.97266C35.0912 1.97266 37.8192 4.70118 37.8192 8.06661Z" fill="white"/>
<path d="M44.7017 13.3267C41.9335 13.5889 39.7681 15.9194 39.7681 18.756V24.5629C39.7681 25.5656 40.5814 26.379 41.5841 26.379H54.0367C55.0399 26.379 55.8532 25.5656 55.8532 24.5629V18.756C55.8532 15.9174 53.6843 13.5849 50.9131 13.3262" fill="#FFD54F"/>
<path d="M53.9047 8.06661C53.9047 11.432 51.1762 14.1601 47.8107 14.1601C44.4453 14.1601 41.7173 11.432 41.7173 8.06661C41.7173 4.70118 44.4453 1.97266 47.8107 1.97266C51.1762 1.97266 53.9047 4.70118 53.9047 8.06661Z" fill="white"/>
<path d="M64.2063 30.5515C63.2339 29.6544 61.911 29.1003 60.5767 29.0309C59.0615 28.9526 57.642 29.4928 56.5848 30.5505L49.3613 37.6982C49.2185 37.4509 49.0554 37.2175 48.8725 37.0009C47.9839 35.9456 46.6843 35.3647 45.2137 35.3647H35.1016C33.1948 35.3647 31.3347 35.1174 29.5731 34.6302C24.9805 33.3599 20.593 34.2877 16.8841 37.3151C15.3759 38.5463 14.2756 39.8855 13.5797 40.8619L11.7666 39.1024C11.5282 38.8709 11.205 38.7396 10.8725 38.7396C10.8695 38.7396 10.867 38.7396 10.864 38.7396C10.5196 38.7421 10.1865 38.8853 9.94759 39.1331L1.13354 48.2832C0.89761 48.5281 0.769238 48.8572 0.776673 49.1972C0.784108 49.5377 0.926358 49.8609 1.17269 50.0953L16.0802 64.2901C16.3275 64.5255 16.6447 64.643 16.9615 64.643C17.294 64.643 17.6266 64.5136 17.8769 64.2569L26.6087 55.2986C26.8471 55.0537 26.9794 54.7192 26.973 54.3772C26.9665 54.0402 26.8253 53.715 26.5834 53.4801L25.8231 52.7426L27.5633 52.5468C28.616 52.4243 29.6866 52.3624 30.7463 52.3624H46.1316C48.6317 52.3624 50.755 51.8157 52.4432 50.7372C52.4571 50.7283 52.4709 50.7188 52.4848 50.7094C53.0895 50.2891 53.6382 49.791 54.115 49.2294L64.4829 37.0321C66.2573 34.9449 66.1463 32.3403 64.2063 30.5515ZM16.9282 61.5685L3.86603 49.1308L10.9027 41.8255L23.8886 54.4272L16.9282 61.5685ZM62.5355 35.3766L52.1676 47.5745C51.8385 47.9616 51.4613 48.3055 51.0455 48.597C49.7781 49.3994 48.1251 49.8068 46.1316 49.8068H30.7458C29.5885 49.8068 28.4183 49.8748 27.2728 50.0081L23.4475 50.4373L15.4378 42.6646C15.9945 41.8394 17.018 40.5056 18.5004 39.2952C21.5823 36.7793 25.0786 36.0383 28.8916 37.0936C30.8752 37.6422 32.9643 37.9208 35.1016 37.9208H45.2137C47.0297 37.9208 47.5145 39.494 47.5145 40.4233C47.5145 41.1023 47.2964 41.7487 46.9162 42.1967C46.5039 42.682 45.9175 42.9278 45.1735 42.9278H36.3709C35.6651 42.9278 35.0931 43.5003 35.0931 44.2061C35.0931 44.9119 35.6651 45.4838 36.3709 45.4838H45.1735C46.6595 45.4838 47.97 44.9039 48.8641 43.8512C49.6081 42.9759 50.0324 41.825 50.068 40.5948L58.3874 32.3626C59.5765 31.1736 61.4342 31.472 62.4735 32.4305C63.0108 32.9262 63.7335 33.9675 62.5355 35.3766Z" fill="url(#paint1_linear_2831_1744)"/>
<path d="M32.3856 43.8654C32.2245 43.1779 31.5371 42.7522 30.8496 42.9128C30.1626 43.0739 29.7359 43.7613 29.8975 44.4488L29.9094 44.5008C30.0476 45.0896 30.5725 45.4872 31.1524 45.4872C31.2491 45.4872 31.3472 45.4762 31.4454 45.4534C32.1328 45.2924 32.5591 44.6044 32.398 43.9174L32.3856 43.8654Z" fill="url(#paint2_linear_2831_1744)"/>
<path d="M9.41462 27.6252H21.8672C22.5452 27.6252 23.1727 27.4051 23.6832 27.0334C24.1938 27.4051 24.8212 27.6252 25.4993 27.6252H37.9524C38.6304 27.6252 39.2579 27.4051 39.7684 27.0334C40.2789 27.4051 40.9064 27.6252 41.5844 27.6252H54.037C55.743 27.6252 57.1308 26.2369 57.1308 24.5309V18.7239C57.1308 16.1158 55.6712 13.8502 53.4864 12.7325C54.5451 11.4558 55.1825 9.81816 55.1825 8.03384C55.1825 3.96905 51.8755 0.662109 47.8107 0.662109C43.746 0.662109 40.439 3.96905 40.439 8.03384C40.439 9.81816 41.0764 11.4563 42.1351 12.7325C41.1909 13.2163 40.3825 13.9147 39.7684 14.7617C39.1543 13.9142 38.3459 13.2158 37.4012 12.7325C38.4599 11.4563 39.0973 9.81816 39.0973 8.03384C39.0973 3.96905 35.7904 0.662109 31.7256 0.662109C27.6608 0.662109 24.3539 3.96905 24.3539 8.03384C24.3539 9.81816 24.9917 11.4563 26.0504 12.733C25.1057 13.2163 24.2973 13.9147 23.6832 14.7622C23.0691 13.9147 22.2607 13.2163 21.316 12.7325C22.3747 11.4563 23.0121 9.81816 23.0121 8.03433C23.0121 3.96905 19.7052 0.662109 15.6404 0.662109C11.5761 0.662109 8.26919 3.96905 8.26919 8.03433C8.26919 9.81816 8.90659 11.4563 9.96528 12.733C7.78048 13.8507 6.32031 16.1168 6.32031 18.7244V24.5309C6.32031 26.2369 7.70861 27.6252 9.41462 27.6252ZM47.8112 3.21815C50.4664 3.21815 52.6269 5.37817 52.6269 8.03384C52.6269 10.689 50.4664 12.8495 47.8112 12.8495C45.1556 12.8495 42.9956 10.6895 42.9956 8.03384C42.9951 5.37817 45.1556 3.21815 47.8112 3.21815ZM44.4909 14.6125C45.4896 15.1186 46.6172 15.4056 47.8107 15.4056C49.0047 15.4056 50.1323 15.1186 51.1306 14.6125C53.1166 14.9585 54.5753 16.67 54.5753 18.7239V24.5309C54.5753 24.8278 54.3339 25.0691 54.037 25.0691H41.5844C41.2881 25.0691 41.0467 24.8278 41.0467 24.5309V18.7239C41.0462 16.6704 42.5054 14.9585 44.4909 14.6125ZM31.7261 3.21815C34.3812 3.21815 36.5418 5.37817 36.5418 8.03384C36.5418 10.689 34.3812 12.8495 31.7261 12.8495C29.0704 12.8495 26.9104 10.6895 26.9104 8.03384C26.9104 5.37817 29.0704 3.21815 31.7261 3.21815ZM28.4062 14.6125C29.4045 15.1186 30.5321 15.4056 31.7261 15.4056C32.9201 15.4056 34.0472 15.1186 35.0459 14.6125C37.0315 14.9585 38.4906 16.67 38.4906 18.7239V24.5309C38.4906 24.8278 38.2493 25.0691 37.9524 25.0691H25.4998C25.2029 25.0691 24.9615 24.8278 24.9615 24.5309V18.7239C24.9615 16.6704 26.4207 14.9585 28.4062 14.6125ZM15.6409 3.21815C18.2961 3.21815 20.4566 5.37817 20.4566 8.03384C20.4566 10.689 18.2961 12.8495 15.6409 12.8495C12.9857 12.8495 10.8252 10.689 10.8252 8.03384C10.8252 5.37817 12.9857 3.21815 15.6409 3.21815ZM8.87635 18.7239C8.87635 16.6704 10.3355 14.9585 12.3211 14.6125C13.3198 15.1186 14.4469 15.4056 15.6409 15.4056C16.8349 15.4056 17.962 15.1186 18.9607 14.6125C20.9468 14.9585 22.4055 16.67 22.4055 18.7239V24.5309C22.4055 24.8278 22.1641 25.0691 21.8672 25.0691H9.41462C9.11773 25.0691 8.87635 24.8278 8.87635 24.5309V18.7239Z" fill="url(#paint3_linear_2831_1744)"/>
</g>
<defs>
<linearGradient id="paint0_linear_2831_1744" x1="23.6831" y1="13.9788" x2="41.5015" y2="20.2995" gradientUnits="userSpaceOnUse">
<stop stop-color="#FFD54F"/>
<stop offset="1" stop-color="#FEC100"/>
</linearGradient>
<linearGradient id="paint1_linear_2831_1744" x1="0.776367" y1="46.8332" x2="62.1652" y2="46.8332" gradientUnits="userSpaceOnUse">
<stop stop-color="#9D94FF"/>
<stop offset="1" stop-color="#6B50E9"/>
</linearGradient>
<linearGradient id="paint2_linear_2831_1744" x1="29.8633" y1="44.183" x2="32.2906" y2="44.183" gradientUnits="userSpaceOnUse">
<stop stop-color="#9D94FF"/>
<stop offset="1" stop-color="#6B50E9"/>
</linearGradient>
<linearGradient id="paint3_linear_2831_1744" x1="6.32031" y1="14.1436" x2="54.3339" y2="14.1436" gradientUnits="userSpaceOnUse">
<stop stop-color="#9D94FF"/>
<stop offset="1" stop-color="#6B50E9"/>
</linearGradient>
<clipPath id="clip0_2831_1744">
<rect width="64.9651" height="64.9651" fill="white" transform="translate(0.776367 0.154297)"/>
</clipPath>
</defs>

</symbol>

<symbol id="move" viewBox="0 0 55 55" fill="none" xmlns="http://www.w3.org/2000/svg">
<g clip-path="url(#clip0_2831_1764)">
<rect x="26.9424" y="2.63281" width="25.4375" height="11.5" fill="#B8C4FF"/>
<path d="M49.3838 0.507812H30.2939C27.677 0.507812 25.5479 2.63696 25.5479 5.25391V11.582C25.5479 14.199 27.677 16.3281 30.2939 16.3281H38.2041V19.5977H30.2939C27.677 19.5977 25.5479 21.7264 25.5479 24.3433V30.6715C25.5479 33.2888 27.677 35.4176 30.2939 35.4176H38.2041V38.6871H30.2939C27.677 38.6871 25.5479 40.8162 25.5479 43.4332V49.7613C25.5479 52.3783 27.677 54.5074 30.2939 54.5074H49.3838C52.0007 54.5074 54.1299 52.3783 54.1299 49.7613V43.4332C54.1299 40.8162 52.0007 38.6871 49.3838 38.6871H41.3682V35.4176H49.3838C52.0007 35.4176 54.1299 33.2888 54.1299 30.6715V24.3433C54.1299 21.7264 52.0007 19.5977 49.3838 19.5977H41.3682V16.3281H49.3838C52.0007 16.3281 54.1299 14.199 54.1299 11.582V5.25391C54.1299 2.63696 52.0007 0.507812 49.3838 0.507812ZM50.9658 43.4332V49.7613C50.9658 50.6339 50.256 51.3433 49.3838 51.3433H30.2939C29.4214 51.3433 28.7119 50.6339 28.7119 49.7613V43.4332C28.7119 42.561 29.4214 41.8512 30.2939 41.8512H49.3838C50.256 41.8512 50.9658 42.561 50.9658 43.4332ZM50.9658 24.3433V30.6715C50.9658 31.5441 50.256 32.2535 49.3838 32.2535H30.2939C29.4214 32.2535 28.7119 31.5441 28.7119 30.6715V24.3433C28.7119 23.4712 29.4214 22.7617 30.2939 22.7617H49.3838C50.256 22.7617 50.9658 23.4712 50.9658 24.3433ZM50.9658 11.582C50.9658 12.4542 50.256 13.1641 49.3838 13.1641H30.2939C29.4214 13.1641 28.7119 12.4542 28.7119 11.582V5.25391C28.7119 4.38132 29.4214 3.67188 30.2939 3.67188H49.3838C50.256 3.67188 50.9658 4.38132 50.9658 5.25391V11.582Z" fill="url(#paint0_linear_2831_1764)"/>
<path d="M8.14551 48.1797C9.01933 48.1797 9.72754 47.4715 9.72754 46.5977C9.72754 45.7242 9.01933 45.0156 8.14551 45.0156C5.51579 45.0156 3.29395 42.8424 3.29395 40.2695C3.29395 39.3961 2.58574 38.6875 1.71191 38.6875C0.838089 38.6875 0.129883 39.3961 0.129883 40.2695C0.129883 44.642 3.77226 48.1797 8.14551 48.1797Z" fill="#FEC100"/>
<path d="M1.71191 35.418C2.58574 35.418 3.29395 34.7098 3.29395 33.8359V27.5078C3.29395 26.6344 2.58574 25.9258 1.71191 25.9258C0.838089 25.9258 0.129883 26.6344 0.129883 27.5078V33.8359C0.129883 34.7098 0.838089 35.418 1.71191 35.418Z" fill="#FEC100"/>
<path d="M1.71191 22.7621C2.58574 22.7621 3.29395 22.0535 3.29395 21.1801V14.7465C3.29395 12.1737 5.51579 10.0004 8.14551 10.0004H15.5765L10.432 13.4298C9.70488 13.9147 9.50836 14.8969 9.99327 15.6236C10.4802 16.3545 11.4637 16.5448 12.1871 16.0624L21.6793 9.73469C22.1193 9.44094 22.3838 8.94697 22.3838 8.41798C22.3838 7.88898 22.1193 7.39501 21.6793 7.10168L12.1871 0.773551C11.4599 0.289054 10.4778 0.485572 9.99327 1.21232C9.50836 1.93948 9.70488 2.92165 10.432 3.40615L15.5765 6.83594H8.14551C3.77309 6.83594 0.129883 10.3729 0.129883 14.7461L0.129883 21.1797C0.129883 22.0535 0.838089 22.7621 1.71191 22.7621Z" fill="#FEC100"/>
<path d="M14.4736 45.0156C13.5998 45.0156 12.8916 45.7242 12.8916 46.5977C12.8916 47.4715 13.5998 48.1797 14.4736 48.1797H20.8018C21.6756 48.1797 22.3838 47.4715 22.3838 46.5977C22.3838 45.7242 21.6756 45.0156 20.8018 45.0156H14.4736Z" fill="#FEC100"/>
<path d="M46.2197 6.83594H33.458C32.5842 6.83594 31.876 7.54414 31.876 8.41797C31.876 9.29138 32.5842 10 33.458 10H46.2197C47.0931 10 47.8018 9.29138 47.8018 8.41797C47.8018 7.54414 47.0931 6.83594 46.2197 6.83594Z" fill="url(#paint1_linear_2831_1764)"/>
<path d="M31.876 27.5078C31.876 28.3816 32.5842 29.0898 33.458 29.0898H46.2197C47.0931 29.0898 47.8018 28.3816 47.8018 27.5078C47.8018 26.6344 47.0931 25.9258 46.2197 25.9258H33.458C32.5842 25.9258 31.876 26.6344 31.876 27.5078Z" fill="url(#paint2_linear_2831_1764)"/>
<path d="M31.876 46.5977C31.876 47.4715 32.5842 48.1797 33.458 48.1797H46.2197C47.0931 48.1797 47.8018 47.4715 47.8018 46.5977C47.8018 45.7242 47.0931 45.0156 46.2197 45.0156H33.458C32.5842 45.0156 31.876 45.7238 31.876 46.5977Z" fill="url(#paint3_linear_2831_1764)"/>
</g>
<defs>
<linearGradient id="paint0_linear_2831_1764" x1="25.5479" y1="27.5076" x2="52.5566" y2="27.5076" gradientUnits="userSpaceOnUse">
<stop stop-color="#9D94FF"/>
<stop offset="1" stop-color="#6B50E9"/>
</linearGradient>
<linearGradient id="paint1_linear_2831_1764" x1="31.876" y1="8.41797" x2="46.9251" y2="8.41797" gradientUnits="userSpaceOnUse">
<stop stop-color="#9D94FF"/>
<stop offset="1" stop-color="#6B50E9"/>
</linearGradient>
<linearGradient id="paint2_linear_2831_1764" x1="31.876" y1="27.5078" x2="46.9251" y2="27.5078" gradientUnits="userSpaceOnUse">
<stop stop-color="#9D94FF"/>
<stop offset="1" stop-color="#6B50E9"/>
</linearGradient>
<linearGradient id="paint3_linear_2831_1764" x1="31.876" y1="46.5977" x2="46.9251" y2="46.5977" gradientUnits="userSpaceOnUse">
<stop stop-color="#9D94FF"/>
<stop offset="1" stop-color="#6B50E9"/>
</linearGradient>
<clipPath id="clip0_2831_1764">
<rect width="54" height="54" fill="white" transform="translate(0.129883 0.507812)"/>
</clipPath>
</defs>
</symbol>

<symbol id="list" viewBox="0 0 15 15" xmlns="http://www.w3.org/2000/svg">
<rect y="0.5" width="14.5036" height="3.22302" rx="1" />
<rect y="11.2773" width="14.5036" height="3.22302" rx="1" />
<rect y="5.88867" width="14.5036" height="3.22302" rx="1" />
</symbol>

<symbol id="tile" viewBox="0 0 15 14" xmlns="http://www.w3.org/2000/svg">
<rect x="0.00390625" width="5.44444" height="5.44444" rx="1" />
<rect x="0.00390625" y="8.55469" width="5.44444" height="5.44444" rx="1" />
<rect x="8.55957" width="5.44444" height="5.44444" rx="1" />
<rect x="8.55957" y="8.55469" width="5.44444" height="5.44444" rx="1" />
</symbol>

<symbol id="close" viewBox="0 0 10 10" fill="none" xmlns="http://www.w3.org/2000/svg">
<path d="M5.91628 5.00007L9.81017 1.10608C10.0636 0.852787 10.0636 0.443255 9.81017 0.189966C9.55688 -0.0633221 9.14735 -0.0633221 8.89406 0.189966L5.00005 4.08396L1.10617 0.189966C0.852759 -0.0633221 0.443344 -0.0633221 0.190056 0.189966C-0.0633519 0.443255 -0.0633519 0.852787 0.190056 1.10608L4.08394 5.00007L0.190056 8.89407C-0.0633519 9.14736 -0.0633519 9.55689 0.190056 9.81018C0.316285 9.93653 0.482257 10 0.648111 10C0.813965 10 0.979819 9.93653 1.10617 9.81018L5.00005 5.91618L8.89406 9.81018C9.0204 9.93653 9.18626 10 9.35211 10C9.51797 10 9.68382 9.93653 9.81017 9.81018C10.0636 9.55689 10.0636 9.14736 9.81017 8.89407L5.91628 5.00007Z" fill="#664EF9"/>
</symbol>

<symbol id="metro" width="20" height="13" viewBox="0 0 20 13" xmlns="http://www.w3.org/2000/svg">
<path d="M19.6401 11.4968H18.3812L14.4755 0.529297L9.99979 7.21896L5.21594 0.608796L1.61882 11.4968H0.359905L0 12.9569H4.77911L6.65514 7.61934L10.0565 12.3138L10.0769 12.3433L10.0978 12.3138L13.3449 7.61934L15.2209 12.9569H20L19.6401 11.4968Z"/>
</symbol>

<symbol id="circle" width="6" height="7" viewBox="0 0 6 7" fill="none" xmlns="http://www.w3.org/2000/svg">
<ellipse cx="2.75" cy="3.22685" rx="2.75" ry="2.84209" fill="#BDBDBD"/>
</symbol>

<symbol id="sort" width="15" height="16" viewBox="0 0 15 16" fill="none" xmlns="http://www.w3.org/2000/svg">
<g clip-path="url(#clip0_2831_3481)">
<g opacity="0.6">
<path d="M7.32328 6.74139H11.4807C11.5823 6.74139 11.6647 6.65952 11.6647 6.55807V4.37278C11.6647 4.27148 11.5826 4.18945 11.4807 4.18945H7.32328C7.22199 4.18945 7.13965 4.27133 7.13965 4.37278V6.55822C7.13965 6.65952 7.22183 6.74139 7.32328 6.74139Z" fill="#7A7F86"/>
<path d="M7.32328 3.07178H9.67264C9.77393 3.07178 9.85627 2.9896 9.85627 2.88815V0.703167C9.85627 0.601561 9.77424 0.519531 9.67264 0.519531H7.32328C7.22199 0.519531 7.13965 0.601406 7.13965 0.703167V2.88815C7.13965 2.9896 7.22183 3.07178 7.32328 3.07178Z" fill="#7A7F86"/>
<path d="M7.32328 11.1105H13.0685C13.1696 11.1105 13.252 11.0287 13.252 10.9272V8.74223C13.252 8.64093 13.1699 8.55859 13.0685 8.55859H7.32328C7.22199 8.55859 7.13965 8.64078 7.13965 8.74223V10.9272C7.13965 11.0285 7.22183 11.1105 7.32328 11.1105Z" fill="#7A7F86"/>
<path d="M14.6558 12.9297H7.32328C7.22199 12.9297 7.13965 13.0114 7.13965 13.1135V15.2981C7.13965 15.3994 7.22183 15.4818 7.32328 15.4818H14.656C14.7573 15.4818 14.8394 15.3996 14.8394 15.2981V13.1132C14.8393 13.0114 14.7574 12.9297 14.6558 12.9297Z" fill="#7A7F86"/>
<path d="M6.08742 10.6908H4.84283V0.81072C4.84283 0.639047 4.70363 0.5 4.53211 0.5H2.02615C1.85464 0.5 1.71543 0.639047 1.71543 0.81072V10.6908H0.471C0.351218 10.6908 0.24231 10.7597 0.190731 10.8676C0.138996 10.9755 0.153755 11.1033 0.228639 11.1965L3.03692 15.3841C3.09596 15.4577 3.18498 15.5 3.27913 15.5C3.37328 15.5 3.46215 15.4577 3.52118 15.3841L6.32947 11.1965C6.40435 11.1032 6.41927 10.9755 6.36753 10.8676C6.31595 10.7598 6.2072 10.6908 6.08742 10.6908Z" fill="#7A7F86"/>
</g>
</g>
<defs>
<clipPath id="clip0_2831_3481">
<rect width="15" height="15" fill="white" transform="translate(0 0.5)"/>
</clipPath>
</defs>
</symbol>



</svg>